<svg width="18" height="19" viewBox="0 0 18 19" fill="none" xmlns="http://www.w3.org/2000/svg"><path opacity=".6" d="M5.586 6.336c.885-.885 1.953-1.328 3.203-1.328 1.25 0 2.305.443 3.164 1.328.886.86 1.328 1.914 1.328 3.164 0 1.25-.443 2.318-1.328 3.203-.86.86-1.914 1.29-3.164 1.29-1.25 0-2.318-.43-3.203-1.29-.86-.885-1.29-1.953-1.29-3.203 0-1.25.43-2.305 1.29-3.164zm1.133 5.234c.573.573 1.263.86 2.07.86a2.82 2.82 0 002.07-.86c.573-.573.86-1.263.86-2.07 0-.807-.287-1.497-.86-2.07a2.822 2.822 0 00-2.07-.86c-.807 0-1.497.287-2.07.86a2.822 2.822 0 00-.86 2.07c0 .807.287 1.497.86 2.07zm7.46-7.46a.892.892 0 01.313.702c0 .287-.104.534-.312.743a.892.892 0 01-.703.312c-.287 0-.534-.104-.743-.312a1.014 1.014 0 01-.312-.742c0-.287.104-.521.312-.704.209-.208.456-.312.743-.312.286 0 .52.104.703.312zM17.5 5.905c.026.703.04 1.901.04 3.594 0 1.693-.014 2.89-.04 3.594-.078 1.588-.56 2.825-1.445 3.71-.86.86-2.084 1.316-3.672 1.368-.703.052-1.901.078-3.594.078-1.693 0-2.89-.026-3.594-.078-1.588-.078-2.812-.547-3.672-1.406a3.77 3.77 0 01-.82-1.094 6.413 6.413 0 01-.469-1.211 7.04 7.04 0 01-.117-1.367C.065 12.39.04 11.193.04 9.5s.026-2.904.078-3.633c.078-1.562.547-2.773 1.406-3.633C2.383 1.35 3.607.867 5.195.79 5.898.763 7.096.75 8.79.75c1.693 0 2.89.013 3.594.04 1.588.077 2.812.559 3.672 1.444.885.86 1.367 2.084 1.445 3.672zm-1.875 8.75a4.26 4.26 0 00.195-.781c.052-.338.091-.73.117-1.172.027-.469.04-.846.04-1.133v-4.14c0-.287-.014-.651-.04-1.094-.025-.469-.065-.86-.117-1.172a4.236 4.236 0 00-.195-.82 2.82 2.82 0 00-1.68-1.68 4.233 4.233 0 00-.82-.195 11.053 11.053 0 00-1.172-.117c-.443-.026-.807-.04-1.094-.04H6.72c-.287 0-.664.014-1.133.04a12.7 12.7 0 00-1.172.117 4.255 4.255 0 00-.781.195 2.82 2.82 0 00-1.68 1.68 4.234 4.234 0 00-.195.82 11.08 11.08 0 00-.117 1.172c-.026.443-.04.807-.04 1.094v4.687c.027.39.053.73.079 1.016a10.348 10.348 0 00.273 1.523c.339.807.899 1.367 1.68 1.68.208.078.469.143.781.195.339.052.73.091 1.172.117.469.026.833.04 1.094.04h4.179c.287 0 .651-.014 1.094-.04.469-.026.86-.065 1.172-.117.338-.052.612-.117.82-.195.808-.339 1.367-.898 1.68-1.68z" fill="url(#paint0_linear)"/><defs><linearGradient id="paint0_linear" x1="15.5" y1="4" x2="6.247" y2="17.879" gradientUnits="userSpaceOnUse"><stop stop-color="#4F5BD5"/><stop offset=".234" stop-color="#962FBF"/><stop offset=".5" stop-color="#D62976"/><stop offset=".755" stop-color="#FA7E1E"/><stop offset="1" stop-color="#FEDA75"/></linearGradient></defs></svg>