<svg width="356" height="40" viewBox="0 0 356 40" fill="none" xmlns="http://www.w3.org/2000/svg">
<path d="M58.45 10.8H51.56V29H55.72V23.28H58.45C62.038 23.28 64.82 20.498 64.82 17.04C64.82 13.582 62.038 10.8 58.45 10.8ZM58.45 19.38H55.72V14.7H58.45C59.724 14.7 60.66 15.714 60.66 17.04C60.66 18.366 59.724 19.38 58.45 19.38ZM73.8839 15.636C72.1679 15.636 70.8679 16.26 70.1659 17.222V10.8H66.2659V29H70.1659V21.902C70.1659 20.056 71.1539 19.224 72.5839 19.224C73.8319 19.224 74.8459 19.978 74.8459 21.59V29H78.7459V21.018C78.7459 17.508 76.5099 15.636 73.8839 15.636ZM87.1641 29.364C90.9861 29.364 94.0541 26.374 94.0541 22.5C94.0541 18.626 90.9861 15.636 87.1641 15.636C83.3421 15.636 80.2741 18.626 80.2741 22.5C80.2741 26.374 83.3421 29.364 87.1641 29.364ZM87.1641 25.568C85.4741 25.568 84.1741 24.346 84.1741 22.5C84.1741 20.654 85.4741 19.432 87.1641 19.432C88.8541 19.432 90.1541 20.654 90.1541 22.5C90.1541 24.346 88.8541 25.568 87.1641 25.568ZM103.124 19.744V16H100.446V12.36L96.5462 13.53V16H94.4662V19.744H96.5462V24.346C96.5462 27.986 98.0282 29.52 103.124 29V25.464C101.408 25.568 100.446 25.464 100.446 24.346V19.744H103.124ZM110.818 29.364C114.64 29.364 117.708 26.374 117.708 22.5C117.708 18.626 114.64 15.636 110.818 15.636C106.996 15.636 103.928 18.626 103.928 22.5C103.928 26.374 106.996 29.364 110.818 29.364ZM110.818 25.568C109.128 25.568 107.828 24.346 107.828 22.5C107.828 20.654 109.128 19.432 110.818 19.432C112.508 19.432 113.808 20.654 113.808 22.5C113.808 24.346 112.508 25.568 110.818 25.568ZM137.562 18.86H128.436V22.5H133.298C132.648 24.242 131.062 25.308 128.644 25.308C125.108 25.308 122.924 23.046 122.924 19.952C122.924 16.754 125.212 14.492 128.28 14.492C130.334 14.492 131.972 15.428 132.726 16.624L136.262 14.596C134.728 12.152 131.79 10.436 128.306 10.436C122.95 10.436 118.764 14.648 118.764 19.926C118.764 25.152 122.872 29.364 128.592 29.364C133.688 29.364 137.562 25.984 137.562 20.42V18.86ZM147.803 16V23.098C147.803 24.944 146.815 25.776 145.385 25.776C144.137 25.776 143.123 25.022 143.123 23.41V16H139.223V23.982C139.223 27.492 141.459 29.364 144.085 29.364C145.801 29.364 147.101 28.74 147.803 27.778V29H151.703V16H147.803ZM156.013 14.856C157.287 14.856 158.353 13.79 158.353 12.516C158.353 11.242 157.287 10.176 156.013 10.176C154.739 10.176 153.673 11.242 153.673 12.516C153.673 13.79 154.739 14.856 156.013 14.856ZM154.063 29H157.963V16H154.063V29ZM169.755 10.8V17.222C168.897 16.234 167.623 15.636 165.881 15.636C162.475 15.636 159.667 18.626 159.667 22.5C159.667 26.374 162.475 29.364 165.881 29.364C167.623 29.364 168.897 28.766 169.755 27.778V29H173.655V10.8H169.755ZM166.661 25.672C164.867 25.672 163.567 24.45 163.567 22.5C163.567 20.55 164.867 19.328 166.661 19.328C168.455 19.328 169.755 20.55 169.755 22.5C169.755 24.45 168.455 25.672 166.661 25.672ZM179.5 24.06H188.73C188.834 23.566 188.886 23.046 188.886 22.5C188.886 18.574 186.078 15.636 182.282 15.636C178.174 15.636 175.366 18.626 175.366 22.5C175.366 26.374 178.122 29.364 182.568 29.364C185.038 29.364 186.962 28.454 188.236 26.686L185.116 24.892C184.596 25.464 183.686 25.88 182.62 25.88C181.19 25.88 179.994 25.412 179.5 24.06ZM179.422 21.148C179.786 19.822 180.774 19.094 182.256 19.094C183.426 19.094 184.596 19.64 185.012 21.148H179.422Z" fill="white"/>
<g opacity="0.7">
<path d="M253.588 16.144C255.748 16.144 256.684 15.004 256.684 13.672C256.684 10.684 252.028 11.608 252.028 10.12C252.028 9.52 252.556 9.124 253.384 9.124C254.224 9.124 255.076 9.412 255.7 10.036L256.504 8.992C255.76 8.272 254.752 7.876 253.504 7.876C251.752 7.876 250.588 8.896 250.588 10.216C250.588 13.168 255.256 12.124 255.256 13.804C255.256 14.332 254.8 14.896 253.648 14.896C252.532 14.896 251.668 14.38 251.116 13.792L250.336 14.872C251.044 15.628 252.112 16.144 253.588 16.144ZM259.505 16.144C260.093 16.144 260.465 15.988 260.693 15.772L260.393 14.824C260.297 14.932 260.069 15.028 259.829 15.028C259.469 15.028 259.277 14.74 259.277 14.344V11.308H260.453V10.204H259.277V8.62H258.017V10.204H257.057V11.308H258.017V14.656C258.017 15.616 258.533 16.144 259.505 16.144ZM264.213 16.144C266.073 16.144 267.201 14.764 267.201 13.096C267.201 11.44 266.073 10.06 264.213 10.06C262.377 10.06 261.237 11.44 261.237 13.096C261.237 14.764 262.377 16.144 264.213 16.144ZM264.213 15.028C263.145 15.028 262.545 14.128 262.545 13.096C262.545 12.076 263.145 11.176 264.213 11.176C265.293 11.176 265.893 12.076 265.893 13.096C265.893 14.128 265.293 15.028 264.213 15.028ZM271.596 16.144C273.096 16.144 274.164 15.004 274.164 13.096C274.164 11.188 273.096 10.06 271.596 10.06C270.84 10.06 270.168 10.42 269.736 10.996V10.204H268.476V18.208H269.736V15.196C270.204 15.82 270.864 16.144 271.596 16.144ZM271.224 15.028C270.636 15.028 270.012 14.668 269.736 14.248V11.956C270.012 11.524 270.636 11.176 271.224 11.176C272.22 11.176 272.856 11.98 272.856 13.096C272.856 14.224 272.22 15.028 271.224 15.028ZM280.236 16.144C280.824 16.144 281.196 15.988 281.424 15.772L281.124 14.824C281.028 14.932 280.8 15.028 280.56 15.028C280.2 15.028 280.008 14.74 280.008 14.344V11.308H281.184V10.204H280.008V8.62H278.748V10.204H277.788V11.308H278.748V14.656C278.748 15.616 279.264 16.144 280.236 16.144ZM287.512 16V11.896C287.512 10.708 286.888 10.06 285.64 10.06C284.728 10.06 283.972 10.54 283.588 10.996V7.996H282.328V16H283.588V11.956C283.888 11.56 284.44 11.176 285.076 11.176C285.784 11.176 286.252 11.452 286.252 12.352V16H287.512ZM291.824 16.144C292.748 16.144 293.6 15.856 294.176 15.304L293.6 14.476C293.192 14.884 292.52 15.112 291.956 15.112C290.864 15.112 290.204 14.392 290.108 13.516H294.584V13.216C294.584 11.392 293.468 10.06 291.728 10.06C290.012 10.06 288.788 11.416 288.788 13.096C288.788 14.932 290.084 16.144 291.824 16.144ZM293.36 12.628H290.096C290.156 11.92 290.648 11.092 291.728 11.092C292.868 11.092 293.336 11.944 293.36 12.628ZM300.65 16.144C301.238 16.144 301.61 15.988 301.838 15.772L301.538 14.824C301.442 14.932 301.214 15.028 300.974 15.028C300.614 15.028 300.422 14.74 300.422 14.344V11.308H301.598V10.204H300.422V8.62H299.162V10.204H298.202V11.308H299.162V14.656C299.162 15.616 299.678 16.144 300.65 16.144ZM303.366 9.496C303.798 9.496 304.146 9.148 304.146 8.716C304.146 8.284 303.798 7.936 303.366 7.936C302.946 7.936 302.586 8.284 302.586 8.716C302.586 9.148 302.946 9.496 303.366 9.496ZM304.002 16V10.204H302.742V16H304.002ZM314 16V11.812C314 10.636 313.4 10.06 312.332 10.06C311.468 10.06 310.7 10.6 310.364 11.128C310.172 10.492 309.644 10.06 308.78 10.06C307.904 10.06 307.136 10.636 306.896 10.996V10.204H305.636V16H306.896V11.956C307.16 11.572 307.676 11.176 308.228 11.176C308.912 11.176 309.188 11.596 309.188 12.22V16H310.448V11.944C310.7 11.572 311.228 11.176 311.792 11.176C312.464 11.176 312.74 11.596 312.74 12.22V16H314ZM318.308 16.144C319.232 16.144 320.084 15.856 320.66 15.304L320.084 14.476C319.676 14.884 319.004 15.112 318.44 15.112C317.348 15.112 316.688 14.392 316.592 13.516H321.068V13.216C321.068 11.392 319.952 10.06 318.212 10.06C316.496 10.06 315.272 11.416 315.272 13.096C315.272 14.932 316.568 16.144 318.308 16.144ZM319.844 12.628H316.58C316.64 11.92 317.132 11.092 318.212 11.092C319.352 11.092 319.82 11.944 319.844 12.628ZM327.818 13.636V12.556H324.938V13.636H327.818ZM252.076 32V23.996H250.816V32H252.076ZM256.387 32.144C257.311 32.144 258.163 31.856 258.739 31.304L258.163 30.476C257.755 30.884 257.083 31.112 256.519 31.112C255.427 31.112 254.767 30.392 254.671 29.516H259.147V29.216C259.147 27.392 258.031 26.06 256.291 26.06C254.575 26.06 253.351 27.416 253.351 29.096C253.351 30.932 254.647 32.144 256.387 32.144ZM257.923 28.628H254.659C254.719 27.92 255.211 27.092 256.291 27.092C257.431 27.092 257.899 27.944 257.923 28.628ZM265.19 32V28.16C265.19 26.6 264.062 26.06 262.778 26.06C261.854 26.06 261.014 26.36 260.342 26.996L260.858 27.872C261.362 27.38 261.926 27.14 262.574 27.14C263.378 27.14 263.93 27.548 263.93 28.22V29.084C263.51 28.592 262.838 28.34 262.058 28.34C261.11 28.34 260.042 28.892 260.042 30.224C260.042 31.508 261.11 32.144 262.058 32.144C262.826 32.144 263.498 31.868 263.93 31.376V32H265.19ZM262.55 31.28C261.842 31.28 261.314 30.872 261.314 30.248C261.314 29.612 261.842 29.204 262.55 29.204C263.102 29.204 263.642 29.408 263.93 29.804V30.68C263.642 31.076 263.102 31.28 262.55 31.28ZM269.704 32L272.068 26.204H270.712L269.02 30.548L267.328 26.204H265.984L268.348 32H269.704ZM275.535 32.144C276.459 32.144 277.311 31.856 277.887 31.304L277.311 30.476C276.903 30.884 276.231 31.112 275.667 31.112C274.575 31.112 273.915 30.392 273.819 29.516H278.295V29.216C278.295 27.392 277.179 26.06 275.439 26.06C273.723 26.06 272.499 27.416 272.499 29.096C272.499 30.932 273.795 32.144 275.535 32.144ZM277.071 28.628H273.807C273.867 27.92 274.359 27.092 275.439 27.092C276.579 27.092 277.047 27.944 277.071 28.628ZM284.361 32.144C284.949 32.144 285.321 31.988 285.549 31.772L285.249 30.824C285.153 30.932 284.925 31.028 284.685 31.028C284.325 31.028 284.133 30.74 284.133 30.344V27.308H285.309V26.204H284.133V24.62H282.873V26.204H281.913V27.308H282.873V30.656C282.873 31.616 283.389 32.144 284.361 32.144ZM291.637 32V27.896C291.637 26.708 291.013 26.06 289.765 26.06C288.853 26.06 288.097 26.54 287.713 26.996V23.996H286.453V32H287.713V27.956C288.013 27.56 288.565 27.176 289.201 27.176C289.909 27.176 290.377 27.452 290.377 28.352V32H291.637ZM295.949 32.144C296.873 32.144 297.725 31.856 298.301 31.304L297.725 30.476C297.317 30.884 296.645 31.112 296.081 31.112C294.989 31.112 294.329 30.392 294.233 29.516H298.709V29.216C298.709 27.392 297.593 26.06 295.853 26.06C294.137 26.06 292.913 27.416 292.913 29.096C292.913 30.932 294.209 32.144 295.949 32.144ZM297.485 28.628H294.221C294.281 27.92 294.773 27.092 295.853 27.092C296.993 27.092 297.461 27.944 297.485 28.628ZM311.399 32V27.812C311.399 26.636 310.799 26.06 309.731 26.06C308.867 26.06 308.099 26.6 307.763 27.128C307.571 26.492 307.043 26.06 306.179 26.06C305.303 26.06 304.535 26.636 304.295 26.996V26.204H303.035V32H304.295V27.956C304.559 27.572 305.075 27.176 305.627 27.176C306.311 27.176 306.587 27.596 306.587 28.22V32H307.847V27.944C308.099 27.572 308.627 27.176 309.191 27.176C309.863 27.176 310.139 27.596 310.139 28.22V32H311.399ZM315.707 32.144C316.631 32.144 317.483 31.856 318.059 31.304L317.483 30.476C317.075 30.884 316.403 31.112 315.839 31.112C314.747 31.112 314.087 30.392 313.991 29.516H318.467V29.216C318.467 27.392 317.351 26.06 315.611 26.06C313.895 26.06 312.671 27.416 312.671 29.096C312.671 30.932 313.967 32.144 315.707 32.144ZM317.243 28.628H313.979C314.039 27.92 314.531 27.092 315.611 27.092C316.751 27.092 317.219 27.944 317.243 28.628ZM328.075 32V27.812C328.075 26.636 327.475 26.06 326.407 26.06C325.543 26.06 324.775 26.6 324.439 27.128C324.247 26.492 323.719 26.06 322.855 26.06C321.979 26.06 321.211 26.636 320.971 26.996V26.204H319.711V32H320.971V27.956C321.235 27.572 321.751 27.176 322.303 27.176C322.987 27.176 323.263 27.596 323.263 28.22V32H324.523V27.944C324.775 27.572 325.303 27.176 325.867 27.176C326.539 27.176 326.815 27.596 326.815 28.22V32H328.075ZM332.323 32.144C334.183 32.144 335.311 30.764 335.311 29.096C335.311 27.44 334.183 26.06 332.323 26.06C330.487 26.06 329.347 27.44 329.347 29.096C329.347 30.764 330.487 32.144 332.323 32.144ZM332.323 31.028C331.255 31.028 330.655 30.128 330.655 29.096C330.655 28.076 331.255 27.176 332.323 27.176C333.403 27.176 334.003 28.076 334.003 29.096C334.003 30.128 333.403 31.028 332.323 31.028ZM337.846 32V28.052C338.098 27.644 338.806 27.284 339.334 27.284C339.49 27.284 339.622 27.296 339.73 27.32V26.072C338.974 26.072 338.278 26.504 337.846 27.056V26.204H336.586V32H337.846ZM341.37 25.496C341.802 25.496 342.15 25.148 342.15 24.716C342.15 24.284 341.802 23.936 341.37 23.936C340.95 23.936 340.59 24.284 340.59 24.716C340.59 25.148 340.95 25.496 341.37 25.496ZM342.006 32V26.204H340.746V32H342.006ZM346.316 32.144C347.24 32.144 348.092 31.856 348.668 31.304L348.092 30.476C347.684 30.884 347.012 31.112 346.448 31.112C345.356 31.112 344.696 30.392 344.6 29.516H349.076V29.216C349.076 27.392 347.96 26.06 346.22 26.06C344.504 26.06 343.28 27.416 343.28 29.096C343.28 30.932 344.576 32.144 346.316 32.144ZM347.852 28.628H344.588C344.648 27.92 345.14 27.092 346.22 27.092C347.36 27.092 347.828 27.944 347.852 28.628ZM352.3 32.144C353.86 32.144 354.712 31.364 354.712 30.344C354.712 28.04 351.208 28.808 351.208 27.776C351.208 27.368 351.628 27.068 352.288 27.068C353.008 27.068 353.656 27.368 354.004 27.764L354.532 26.876C354.004 26.408 353.26 26.06 352.276 26.06C350.812 26.06 349.996 26.876 349.996 27.824C349.996 30.044 353.5 29.228 353.5 30.368C353.5 30.824 353.116 31.148 352.36 31.148C351.604 31.148 350.8 30.752 350.392 30.332L349.816 31.244C350.416 31.832 351.316 32.144 352.3 32.144Z" fill="url(#paint0_linear)"/>
<path d="M253.588 16.144C255.748 16.144 256.684 15.004 256.684 13.672C256.684 10.684 252.028 11.608 252.028 10.12C252.028 9.52 252.556 9.124 253.384 9.124C254.224 9.124 255.076 9.412 255.7 10.036L256.504 8.992C255.76 8.272 254.752 7.876 253.504 7.876C251.752 7.876 250.588 8.896 250.588 10.216C250.588 13.168 255.256 12.124 255.256 13.804C255.256 14.332 254.8 14.896 253.648 14.896C252.532 14.896 251.668 14.38 251.116 13.792L250.336 14.872C251.044 15.628 252.112 16.144 253.588 16.144ZM259.505 16.144C260.093 16.144 260.465 15.988 260.693 15.772L260.393 14.824C260.297 14.932 260.069 15.028 259.829 15.028C259.469 15.028 259.277 14.74 259.277 14.344V11.308H260.453V10.204H259.277V8.62H258.017V10.204H257.057V11.308H258.017V14.656C258.017 15.616 258.533 16.144 259.505 16.144ZM264.213 16.144C266.073 16.144 267.201 14.764 267.201 13.096C267.201 11.44 266.073 10.06 264.213 10.06C262.377 10.06 261.237 11.44 261.237 13.096C261.237 14.764 262.377 16.144 264.213 16.144ZM264.213 15.028C263.145 15.028 262.545 14.128 262.545 13.096C262.545 12.076 263.145 11.176 264.213 11.176C265.293 11.176 265.893 12.076 265.893 13.096C265.893 14.128 265.293 15.028 264.213 15.028ZM271.596 16.144C273.096 16.144 274.164 15.004 274.164 13.096C274.164 11.188 273.096 10.06 271.596 10.06C270.84 10.06 270.168 10.42 269.736 10.996V10.204H268.476V18.208H269.736V15.196C270.204 15.82 270.864 16.144 271.596 16.144ZM271.224 15.028C270.636 15.028 270.012 14.668 269.736 14.248V11.956C270.012 11.524 270.636 11.176 271.224 11.176C272.22 11.176 272.856 11.98 272.856 13.096C272.856 14.224 272.22 15.028 271.224 15.028ZM280.236 16.144C280.824 16.144 281.196 15.988 281.424 15.772L281.124 14.824C281.028 14.932 280.8 15.028 280.56 15.028C280.2 15.028 280.008 14.74 280.008 14.344V11.308H281.184V10.204H280.008V8.62H278.748V10.204H277.788V11.308H278.748V14.656C278.748 15.616 279.264 16.144 280.236 16.144ZM287.512 16V11.896C287.512 10.708 286.888 10.06 285.64 10.06C284.728 10.06 283.972 10.54 283.588 10.996V7.996H282.328V16H283.588V11.956C283.888 11.56 284.44 11.176 285.076 11.176C285.784 11.176 286.252 11.452 286.252 12.352V16H287.512ZM291.824 16.144C292.748 16.144 293.6 15.856 294.176 15.304L293.6 14.476C293.192 14.884 292.52 15.112 291.956 15.112C290.864 15.112 290.204 14.392 290.108 13.516H294.584V13.216C294.584 11.392 293.468 10.06 291.728 10.06C290.012 10.06 288.788 11.416 288.788 13.096C288.788 14.932 290.084 16.144 291.824 16.144ZM293.36 12.628H290.096C290.156 11.92 290.648 11.092 291.728 11.092C292.868 11.092 293.336 11.944 293.36 12.628ZM300.65 16.144C301.238 16.144 301.61 15.988 301.838 15.772L301.538 14.824C301.442 14.932 301.214 15.028 300.974 15.028C300.614 15.028 300.422 14.74 300.422 14.344V11.308H301.598V10.204H300.422V8.62H299.162V10.204H298.202V11.308H299.162V14.656C299.162 15.616 299.678 16.144 300.65 16.144ZM303.366 9.496C303.798 9.496 304.146 9.148 304.146 8.716C304.146 8.284 303.798 7.936 303.366 7.936C302.946 7.936 302.586 8.284 302.586 8.716C302.586 9.148 302.946 9.496 303.366 9.496ZM304.002 16V10.204H302.742V16H304.002ZM314 16V11.812C314 10.636 313.4 10.06 312.332 10.06C311.468 10.06 310.7 10.6 310.364 11.128C310.172 10.492 309.644 10.06 308.78 10.06C307.904 10.06 307.136 10.636 306.896 10.996V10.204H305.636V16H306.896V11.956C307.16 11.572 307.676 11.176 308.228 11.176C308.912 11.176 309.188 11.596 309.188 12.22V16H310.448V11.944C310.7 11.572 311.228 11.176 311.792 11.176C312.464 11.176 312.74 11.596 312.74 12.22V16H314ZM318.308 16.144C319.232 16.144 320.084 15.856 320.66 15.304L320.084 14.476C319.676 14.884 319.004 15.112 318.44 15.112C317.348 15.112 316.688 14.392 316.592 13.516H321.068V13.216C321.068 11.392 319.952 10.06 318.212 10.06C316.496 10.06 315.272 11.416 315.272 13.096C315.272 14.932 316.568 16.144 318.308 16.144ZM319.844 12.628H316.58C316.64 11.92 317.132 11.092 318.212 11.092C319.352 11.092 319.82 11.944 319.844 12.628ZM327.818 13.636V12.556H324.938V13.636H327.818ZM252.076 32V23.996H250.816V32H252.076ZM256.387 32.144C257.311 32.144 258.163 31.856 258.739 31.304L258.163 30.476C257.755 30.884 257.083 31.112 256.519 31.112C255.427 31.112 254.767 30.392 254.671 29.516H259.147V29.216C259.147 27.392 258.031 26.06 256.291 26.06C254.575 26.06 253.351 27.416 253.351 29.096C253.351 30.932 254.647 32.144 256.387 32.144ZM257.923 28.628H254.659C254.719 27.92 255.211 27.092 256.291 27.092C257.431 27.092 257.899 27.944 257.923 28.628ZM265.19 32V28.16C265.19 26.6 264.062 26.06 262.778 26.06C261.854 26.06 261.014 26.36 260.342 26.996L260.858 27.872C261.362 27.38 261.926 27.14 262.574 27.14C263.378 27.14 263.93 27.548 263.93 28.22V29.084C263.51 28.592 262.838 28.34 262.058 28.34C261.11 28.34 260.042 28.892 260.042 30.224C260.042 31.508 261.11 32.144 262.058 32.144C262.826 32.144 263.498 31.868 263.93 31.376V32H265.19ZM262.55 31.28C261.842 31.28 261.314 30.872 261.314 30.248C261.314 29.612 261.842 29.204 262.55 29.204C263.102 29.204 263.642 29.408 263.93 29.804V30.68C263.642 31.076 263.102 31.28 262.55 31.28ZM269.704 32L272.068 26.204H270.712L269.02 30.548L267.328 26.204H265.984L268.348 32H269.704ZM275.535 32.144C276.459 32.144 277.311 31.856 277.887 31.304L277.311 30.476C276.903 30.884 276.231 31.112 275.667 31.112C274.575 31.112 273.915 30.392 273.819 29.516H278.295V29.216C278.295 27.392 277.179 26.06 275.439 26.06C273.723 26.06 272.499 27.416 272.499 29.096C272.499 30.932 273.795 32.144 275.535 32.144ZM277.071 28.628H273.807C273.867 27.92 274.359 27.092 275.439 27.092C276.579 27.092 277.047 27.944 277.071 28.628ZM284.361 32.144C284.949 32.144 285.321 31.988 285.549 31.772L285.249 30.824C285.153 30.932 284.925 31.028 284.685 31.028C284.325 31.028 284.133 30.74 284.133 30.344V27.308H285.309V26.204H284.133V24.62H282.873V26.204H281.913V27.308H282.873V30.656C282.873 31.616 283.389 32.144 284.361 32.144ZM291.637 32V27.896C291.637 26.708 291.013 26.06 289.765 26.06C288.853 26.06 288.097 26.54 287.713 26.996V23.996H286.453V32H287.713V27.956C288.013 27.56 288.565 27.176 289.201 27.176C289.909 27.176 290.377 27.452 290.377 28.352V32H291.637ZM295.949 32.144C296.873 32.144 297.725 31.856 298.301 31.304L297.725 30.476C297.317 30.884 296.645 31.112 296.081 31.112C294.989 31.112 294.329 30.392 294.233 29.516H298.709V29.216C298.709 27.392 297.593 26.06 295.853 26.06C294.137 26.06 292.913 27.416 292.913 29.096C292.913 30.932 294.209 32.144 295.949 32.144ZM297.485 28.628H294.221C294.281 27.92 294.773 27.092 295.853 27.092C296.993 27.092 297.461 27.944 297.485 28.628ZM311.399 32V27.812C311.399 26.636 310.799 26.06 309.731 26.06C308.867 26.06 308.099 26.6 307.763 27.128C307.571 26.492 307.043 26.06 306.179 26.06C305.303 26.06 304.535 26.636 304.295 26.996V26.204H303.035V32H304.295V27.956C304.559 27.572 305.075 27.176 305.627 27.176C306.311 27.176 306.587 27.596 306.587 28.22V32H307.847V27.944C308.099 27.572 308.627 27.176 309.191 27.176C309.863 27.176 310.139 27.596 310.139 28.22V32H311.399ZM315.707 32.144C316.631 32.144 317.483 31.856 318.059 31.304L317.483 30.476C317.075 30.884 316.403 31.112 315.839 31.112C314.747 31.112 314.087 30.392 313.991 29.516H318.467V29.216C318.467 27.392 317.351 26.06 315.611 26.06C313.895 26.06 312.671 27.416 312.671 29.096C312.671 30.932 313.967 32.144 315.707 32.144ZM317.243 28.628H313.979C314.039 27.92 314.531 27.092 315.611 27.092C316.751 27.092 317.219 27.944 317.243 28.628ZM328.075 32V27.812C328.075 26.636 327.475 26.06 326.407 26.06C325.543 26.06 324.775 26.6 324.439 27.128C324.247 26.492 323.719 26.06 322.855 26.06C321.979 26.06 321.211 26.636 320.971 26.996V26.204H319.711V32H320.971V27.956C321.235 27.572 321.751 27.176 322.303 27.176C322.987 27.176 323.263 27.596 323.263 28.22V32H324.523V27.944C324.775 27.572 325.303 27.176 325.867 27.176C326.539 27.176 326.815 27.596 326.815 28.22V32H328.075ZM332.323 32.144C334.183 32.144 335.311 30.764 335.311 29.096C335.311 27.44 334.183 26.06 332.323 26.06C330.487 26.06 329.347 27.44 329.347 29.096C329.347 30.764 330.487 32.144 332.323 32.144ZM332.323 31.028C331.255 31.028 330.655 30.128 330.655 29.096C330.655 28.076 331.255 27.176 332.323 27.176C333.403 27.176 334.003 28.076 334.003 29.096C334.003 30.128 333.403 31.028 332.323 31.028ZM337.846 32V28.052C338.098 27.644 338.806 27.284 339.334 27.284C339.49 27.284 339.622 27.296 339.73 27.32V26.072C338.974 26.072 338.278 26.504 337.846 27.056V26.204H336.586V32H337.846ZM341.37 25.496C341.802 25.496 342.15 25.148 342.15 24.716C342.15 24.284 341.802 23.936 341.37 23.936C340.95 23.936 340.59 24.284 340.59 24.716C340.59 25.148 340.95 25.496 341.37 25.496ZM342.006 32V26.204H340.746V32H342.006ZM346.316 32.144C347.24 32.144 348.092 31.856 348.668 31.304L348.092 30.476C347.684 30.884 347.012 31.112 346.448 31.112C345.356 31.112 344.696 30.392 344.6 29.516H349.076V29.216C349.076 27.392 347.96 26.06 346.22 26.06C344.504 26.06 343.28 27.416 343.28 29.096C343.28 30.932 344.576 32.144 346.316 32.144ZM347.852 28.628H344.588C344.648 27.92 345.14 27.092 346.22 27.092C347.36 27.092 347.828 27.944 347.852 28.628ZM352.3 32.144C353.86 32.144 354.712 31.364 354.712 30.344C354.712 28.04 351.208 28.808 351.208 27.776C351.208 27.368 351.628 27.068 352.288 27.068C353.008 27.068 353.656 27.368 354.004 27.764L354.532 26.876C354.004 26.408 353.26 26.06 352.276 26.06C350.812 26.06 349.996 26.876 349.996 27.824C349.996 30.044 353.5 29.228 353.5 30.368C353.5 30.824 353.116 31.148 352.36 31.148C351.604 31.148 350.8 30.752 350.392 30.332L349.816 31.244C350.416 31.832 351.316 32.144 352.3 32.144Z" fill="white"/>
</g>
<path fill-rule="evenodd" clip-rule="evenodd" d="M1 7H0V8V16.4709H2V9H9.47089V7H1ZM39.7932 8V7H38.7932H30.3223L30.3223 9L37.7932 9V16.4709H39.7932V8ZM0 33.1095H1H9.47089V31.1095H2V23.6386H0V32.1095V33.1095ZM39.7932 32.1095V33.1095H38.7932H30.3223L30.3223 31.1095H37.7932V23.6386L39.7932 23.6386V32.1095Z" fill="#F2C94C"/>
<path fill-rule="evenodd" clip-rule="evenodd" d="M1 7H0V8V16.4709H2V9H9.47089V7H1ZM39.7932 8V7H38.7932H30.3223L30.3223 9L37.7932 9V16.4709H39.7932V8ZM0 33.1095H1H9.47089V31.1095H2V23.6386H0V32.1095V33.1095ZM39.7932 32.1095V33.1095H38.7932H30.3223L30.3223 31.1095H37.7932V23.6386L39.7932 23.6386V32.1095Z" fill="url(#paint1_linear)"/>
<path d="M19.7081 11.9096C21.4662 11.9096 23.0964 12.4608 24.4373 13.4008L23.1658 14.6802C22.1635 14.0482 20.9782 13.6828 19.7081 13.6828C18.3053 13.6828 17.0059 14.1286 15.9423 14.887L14.6821 13.6189C16.0759 12.5466 17.8181 11.9096 19.7081 11.9096Z" fill="#F2C94C"/>
<path d="M19.7081 11.9096C21.4662 11.9096 23.0964 12.4608 24.4373 13.4008L23.1658 14.6802C22.1635 14.0482 20.9782 13.6828 19.7081 13.6828C18.3053 13.6828 17.0059 14.1286 15.9423 14.887L14.6821 13.6189C16.0759 12.5466 17.8181 11.9096 19.7081 11.9096Z" fill="url(#paint2_linear)"/>
<path d="M13.1245 15.1862C12.0588 16.5887 11.4257 18.3417 11.4257 20.2435C11.4257 22.0125 11.9735 23.6528 12.9077 25.002L14.1792 23.7226C13.5511 22.7141 13.1879 21.5215 13.1879 20.2435C13.1879 18.8319 13.631 17.5245 14.3847 16.4543L13.1245 15.1862Z" fill="#F2C94C"/>
<path d="M13.1245 15.1862C12.0588 16.5887 11.4257 18.3417 11.4257 20.2435C11.4257 22.0125 11.9735 23.6528 12.9077 25.002L14.1792 23.7226C13.5511 22.7141 13.1879 21.5215 13.1879 20.2435C13.1879 18.8319 13.631 17.5245 14.3847 16.4543L13.1245 15.1862Z" fill="url(#paint3_linear)"/>
<path d="M23.4739 25.6C22.4103 26.3584 21.111 26.8042 19.7081 26.8042C18.1736 26.8042 16.7628 26.2708 15.6491 25.3782L14.3967 26.6383C15.8346 27.8488 17.6868 28.5774 19.7081 28.5774C21.5982 28.5774 23.3404 27.9403 24.7342 26.868L23.4739 25.6Z" fill="#F2C94C"/>
<path d="M23.4739 25.6C22.4103 26.3584 21.111 26.8042 19.7081 26.8042C18.1736 26.8042 16.7628 26.2708 15.6491 25.3782L14.3967 26.6383C15.8346 27.8488 17.6868 28.5774 19.7081 28.5774C21.5982 28.5774 23.3404 27.9403 24.7342 26.868L23.4739 25.6Z" fill="url(#paint4_linear)"/>
<path d="M26.2918 25.3008C27.3575 23.8983 27.9906 22.1453 27.9906 20.2435C27.9906 18.2096 27.2664 16.3458 26.0635 14.899L24.8111 16.1592C25.6982 17.2799 26.2283 18.6994 26.2283 20.2435C26.2283 21.655 25.7853 22.9625 25.0315 24.0327L26.2918 25.3008Z" fill="#F2C94C"/>
<path d="M26.2918 25.3008C27.3575 23.8983 27.9906 22.1453 27.9906 20.2435C27.9906 18.2096 27.2664 16.3458 26.0635 14.899L24.8111 16.1592C25.6982 17.2799 26.2283 18.6994 26.2283 20.2435C26.2283 21.655 25.7853 22.9625 25.0315 24.0327L26.2918 25.3008Z" fill="url(#paint5_linear)"/>
<path d="M21.9109 20.2435C21.9109 21.4676 20.9247 22.4599 19.7081 22.4599C18.4916 22.4599 17.5054 21.4676 17.5054 20.2435C17.5054 19.0194 18.4916 18.027 19.7081 18.027C20.9247 18.027 21.9109 19.0194 21.9109 20.2435Z" fill="#F2C94C"/>
<path d="M21.9109 20.2435C21.9109 21.4676 20.9247 22.4599 19.7081 22.4599C18.4916 22.4599 17.5054 21.4676 17.5054 20.2435C17.5054 19.0194 18.4916 18.027 19.7081 18.027C20.9247 18.027 21.9109 19.0194 21.9109 20.2435Z" fill="url(#paint6_linear)"/>
<line opacity="0.2" x1="220.5" y1="-2.18557e-08" x2="220.5" y2="40" stroke="white"/>
<defs>
<linearGradient id="paint0_linear" x1="251.792" y1="11.6279" x2="358.103" y2="15.5797" gradientUnits="userSpaceOnUse">
<stop stop-color="#EF8918"/>
<stop offset="1" stop-color="#EF6B17"/>
</linearGradient>
<linearGradient id="paint1_linear" x1="0" y1="7" x2="27.6555" y2="42.7392" gradientUnits="userSpaceOnUse">
<stop stop-color="white" stop-opacity="0.5"/>
<stop offset="1" stop-color="white" stop-opacity="0.1"/>
</linearGradient>
<linearGradient id="paint2_linear" x1="11.4257" y1="11.9096" x2="29.4001" y2="27.0562" gradientUnits="userSpaceOnUse">
<stop stop-color="white" stop-opacity="0.5"/>
<stop offset="1" stop-color="white" stop-opacity="0.1"/>
</linearGradient>
<linearGradient id="paint3_linear" x1="11.4257" y1="11.9096" x2="29.4001" y2="27.0562" gradientUnits="userSpaceOnUse">
<stop stop-color="white" stop-opacity="0.5"/>
<stop offset="1" stop-color="white" stop-opacity="0.1"/>
</linearGradient>
<linearGradient id="paint4_linear" x1="11.4257" y1="11.9096" x2="29.4001" y2="27.0562" gradientUnits="userSpaceOnUse">
<stop stop-color="white" stop-opacity="0.5"/>
<stop offset="1" stop-color="white" stop-opacity="0.1"/>
</linearGradient>
<linearGradient id="paint5_linear" x1="11.4257" y1="11.9096" x2="29.4001" y2="27.0562" gradientUnits="userSpaceOnUse">
<stop stop-color="white" stop-opacity="0.5"/>
<stop offset="1" stop-color="white" stop-opacity="0.1"/>
</linearGradient>
<linearGradient id="paint6_linear" x1="11.4257" y1="11.9096" x2="29.4001" y2="27.0562" gradientUnits="userSpaceOnUse">
<stop stop-color="white" stop-opacity="0.5"/>
<stop offset="1" stop-color="white" stop-opacity="0.1"/>
</linearGradient>
</defs>
</svg>
