<svg width="130" height="130" viewBox="0 0 130 130" fill="none" xmlns="http://www.w3.org/2000/svg"><path d="M51.707 114l3.598-9.338h-2.268l-2.576 7.182-2.59-7.182h-2.268L49.215 114h2.492zm6.149 0v-9.338h-1.988V114h1.988zm6.621 0c1.778 0 2.716-1.12 2.716-2.52 0-1.176-.798-2.142-1.792-2.296.882-.182 1.61-.966 1.61-2.142 0-1.246-.91-2.38-2.688-2.38H59.41V114h5.068zm-.588-5.6h-2.492v-2.03h2.492c.672 0 1.092.434 1.092 1.022 0 .588-.42 1.008-1.092 1.008zm.07 3.878h-2.562v-2.17h2.562c.784 0 1.204.504 1.204 1.092 0 .672-.448 1.078-1.204 1.078zM75.001 114v-1.75h-4.62v-2.114h4.522v-1.75H70.38v-1.974H75v-1.75h-6.608V114H75zm8.814 0l-2.1-3.556c1.008-.238 2.044-1.12 2.044-2.772 0-1.736-1.19-3.01-3.136-3.01h-4.368V114h1.988v-3.318h1.456L81.533 114h2.282zm-3.486-5.068h-2.086v-2.52h2.086c.798 0 1.4.476 1.4 1.26s-.602 1.26-1.4 1.26z" fill="#fff"/><g opacity=".5" filter="url(#filter0_f)"><circle cx="65" cy="65" r="35" fill="#9B51E0"/></g><circle cx="65" cy="50" r="40" fill="#9B51E0"/><path d="M76.016 37.68c1.289 1.133 2.207 2.93 2.753 5.39.547 2.422.606 5.43.176 9.024a11.36 11.36 0 01-.586 2.46 9.925 9.925 0 01-.82 1.934 7.665 7.665 0 01-1.113 1.407c-.39.43-.782.78-1.172 1.054a8.31 8.31 0 01-1.172.645c-.43.195-.781.351-1.055.468-.273.079-.586.157-.937.235a4.86 4.86 0 01-.528.117c-.273.117-.742.234-1.406.352-.664.117-1.719.234-3.164.351a20.12 20.12 0 01-4.336 0c-.82.899-1.406 1.543-1.758 1.934l-.468.468a8.993 8.993 0 01-.41.47 5.517 5.517 0 01-.41.35c-.157.196-.274.294-.352.294-.078 0-.215.039-.41.117-.196.078-.332.059-.41-.059a.87.87 0 01-.41-.234.87.87 0 01-.235-.41 5.575 5.575 0 01-.117-.41v-.293l-.059-.117.059-3.047h-.059a10.796 10.796 0 01-2.285-.938c-.703-.43-1.289-.898-1.758-1.406-.43-.508-.84-1.055-1.23-1.64a9.779 9.779 0 01-.82-1.876c-.157-.625-.313-1.27-.47-1.933a17.37 17.37 0 01-.234-1.934c0-.625-.02-1.23-.058-1.816 0-.586.02-1.114.058-1.582.078-4.258 1.055-7.325 2.93-9.2 1.172-1.054 2.734-1.835 4.688-2.343 1.953-.508 3.632-.762 5.039-.762h2.05c2.032.04 3.867.273 5.508.703 1.68.39 2.832.781 3.457 1.172.625.352 1.133.703 1.524 1.055zm.82 13.886c.39-3.047.352-5.625-.117-7.734-.43-2.148-1.192-3.691-2.285-4.629-.274-.273-.703-.566-1.29-.879-.585-.312-1.601-.625-3.046-.937-1.407-.313-2.97-.489-4.688-.528h-.762c-.312 0-.917.04-1.816.118-.86.039-1.7.136-2.52.293-.78.117-1.64.37-2.578.761-.937.352-1.699.82-2.285 1.407-1.601 1.562-2.441 4.12-2.52 7.675.04.703.04 1.465 0 2.285-.038.782.04 1.641.235 2.579.195.898.45 1.757.762 2.578.351.78.918 1.523 1.699 2.226.781.664 1.738 1.153 2.871 1.465-.039 3.086-.059 4.766-.059 5.04 0 .273.079.429.235.468.156.078.312.02.469-.176l3.984-4.629c1.21.078 2.441.078 3.691 0 1.25-.117 2.168-.234 2.754-.351.586-.117.996-.215 1.23-.293.04 0 .216-.04.528-.117a9.05 9.05 0 00.879-.235c.274-.117.625-.273 1.055-.469.43-.195.8-.449 1.113-.761.352-.352.703-.742 1.055-1.172.351-.469.644-1.035.879-1.7.234-.703.41-1.464.527-2.285zM68.69 46.82c0 .274-.136.41-.41.41-.234 0-.351-.117-.351-.351-.078-1.25-.723-1.914-1.934-1.992a.394.394 0 01-.352-.176.493.493 0 01.06-.41.394.394 0 01.35-.176c1.68.078 2.56.977 2.637 2.695zm1.172.703c.04-1.289-.332-2.363-1.113-3.222-.781-.86-1.894-1.348-3.34-1.465-.156 0-.254-.059-.293-.176a.728.728 0 010-.41.394.394 0 01.352-.176c1.64.117 2.91.684 3.808 1.7.938 1.015 1.387 2.265 1.348 3.75a.394.394 0 01-.176.351.728.728 0 01-.41 0 .394.394 0 01-.176-.352zm2.754.762a.394.394 0 01-.176.352.728.728 0 01-.41 0 .394.394 0 01-.175-.352c0-2.304-.684-4.101-2.051-5.39-1.328-1.329-3.008-1.993-5.04-1.993-.234 0-.35-.117-.35-.351 0-.274.116-.41.35-.41 2.266 0 4.141.742 5.626 2.226 1.484 1.446 2.226 3.418 2.226 5.918zm-.644 5.742a5.788 5.788 0 01-1.407 1.641c-.547.39-1.093.488-1.64.293-.664-.195-1.621-.625-2.871-1.29-1.211-.663-2.246-1.327-3.106-1.991a15.374 15.374 0 01-2.52-2.52 22.916 22.916 0 01-1.757-2.695c-.39-.664-.723-1.27-.996-1.817-.235-.546-.39-.937-.469-1.171l-.059-.293c-.195-.547-.097-1.094.293-1.641a5.787 5.787 0 011.641-1.406c.547-.274 1.016-.196 1.406.234.469.586.82 1.016 1.055 1.29.273.39.566.858.879 1.405.351.664.273 1.192-.234 1.582l-.704.528a.569.569 0 00-.234.351c-.04.117-.059.235-.059.352v.117c.04.117.078.273.118.469.078.156.234.488.468.996.274.469.567.918.88 1.348.35.39.82.8 1.406 1.23.624.43 1.308.742 2.05.938.352 0 .625-.118.82-.352l.586-.703c.391-.508.899-.586 1.524-.234 1.094.624 1.992 1.269 2.695 1.933.43.39.508.86.235 1.406z" fill="#fff"/><defs><filter id="filter0_f" x="0" y="0" width="130" height="130" filterUnits="userSpaceOnUse" color-interpolation-filters="sRGB"><feFlood flood-opacity="0" result="BackgroundImageFix"/><feBlend in="SourceGraphic" in2="BackgroundImageFix" result="shape"/><feGaussianBlur stdDeviation="15" result="effect1_foregroundBlur"/></filter></defs></svg>