<?xml version="1.0" encoding="utf-8"?><svg width="40" height="37" fill="none" xmlns="http://www.w3.org/2000/svg" viewBox="0 0 40 37"><path fill-rule="evenodd" clip-rule="evenodd" d="M39.238 36.571H.762a.761.761 0 01-.762-.76V5.332c0-.42.34-.76.762-.76h12.38V.762a.762.762 0 111.525 0v3.81h10.666V.762a.762.762 0 111.524 0v3.81h12.381c.421 0 .762.34.762.76V35.81c0 .42-.34.761-.762.761zm-.762-30.475H26.857v2.285a.762.762 0 11-1.524 0V6.096H14.667v2.285a.762.762 0 11-1.524 0V6.096H1.523v5.333h36.953V6.096zm0 6.856H1.524v22.096h36.952V12.952z" fill="#F2C94C"/><path fill-rule="evenodd" clip-rule="evenodd" d="M39.238 36.571H.762a.761.761 0 01-.762-.76V5.332c0-.42.34-.76.762-.76h12.38V.762a.762.762 0 111.525 0v3.81h10.666V.762a.762.762 0 111.524 0v3.81h12.381c.421 0 .762.34.762.76V35.81c0 .42-.34.761-.762.761zm-.762-30.475H26.857v2.285a.762.762 0 11-1.524 0V6.096H14.667v2.285a.762.762 0 11-1.524 0V6.096H1.523v5.333h36.953V6.096zm0 6.856H1.524v22.096h36.952V12.952z" fill="url(#epaint0_linear)"/><path d="M15.758 16.4a.763.763 0 00-.83.165l-2.622 2.622a.761.761 0 101.077 1.077l1.322-1.32v11.27a.762.762 0 101.524 0v-13.11a.761.761 0 00-.47-.704z" fill="#F2C94C"/><path d="M15.758 16.4a.763.763 0 00-.83.165l-2.622 2.622a.761.761 0 101.077 1.077l1.322-1.32v11.27a.762.762 0 101.524 0v-13.11a.761.761 0 00-.47-.704z" fill="url(#epaint1_linear)"/><path d="M26.133 16.473l-6.096.008a.761.761 0 00-.76.76v4.573c0 .42.34.761.761.761h3.048c1.965 0 3.047 1.252 3.047 3.525 0 2.286-.969 3.351-3.047 3.351-2.12 0-2.286-1.764-2.286-2.304a.762.762 0 10-1.524 0c0 1.905 1.178 3.828 3.81 3.828 2.905 0 4.571-1.777 4.571-4.875 0-3.722-2.362-5.049-4.571-5.049H20.8v-3.048l5.334-.006a.762.762 0 10-.001-1.524z" fill="#F2C94C"/><path d="M26.133 16.473l-6.096.008a.761.761 0 00-.76.76v4.573c0 .42.34.761.761.761h3.048c1.965 0 3.047 1.252 3.047 3.525 0 2.286-.969 3.351-3.047 3.351-2.12 0-2.286-1.764-2.286-2.304a.762.762 0 10-1.524 0c0 1.905 1.178 3.828 3.81 3.828 2.905 0 4.571-1.777 4.571-4.875 0-3.722-2.362-5.049-4.571-5.049H20.8v-3.048l5.334-.006a.762.762 0 10-.001-1.524z" fill="url(#epaint2_linear)"/><defs><linearGradient id="epaint0_linear" x1="4" y1="0" x2="42.298" y2="28.415" gradientUnits="userSpaceOnUse"><stop stop-color="#fff" stop-opacity=".5"/><stop offset="1" stop-color="#fff" stop-opacity=".1"/></linearGradient><linearGradient id="epaint1_linear" x1="4" y1="0" x2="42.298" y2="28.415" gradientUnits="userSpaceOnUse"><stop stop-color="#fff" stop-opacity=".5"/><stop offset="1" stop-color="#fff" stop-opacity=".1"/></linearGradient><linearGradient id="epaint2_linear" x1="4" y1="0" x2="42.298" y2="28.415" gradientUnits="userSpaceOnUse"><stop stop-color="#fff" stop-opacity=".5"/><stop offset="1" stop-color="#fff" stop-opacity=".1"/></linearGradient></defs></svg>