<?xml version="1.0" encoding="utf-8"?><svg width="130" height="130" fill="none" xmlns="http://www.w3.org/2000/svg" viewBox="0 0 130 130"><path d="M32.034 114v-3.864h4.522v-1.75h-4.522v-1.974h4.62v-1.75h-6.608V114h1.988zm13.817 0l-3.598-9.338H39.76L36.149 114h2.268l.588-1.582h4.004l.574 1.582h2.268zm-3.388-3.332H39.55l1.456-4.018 1.456 4.018zm7.993 3.5c2.058 0 3.234-1.134 3.906-2.296l-1.708-.826c-.392.77-1.232 1.358-2.198 1.358-1.694 0-2.925-1.302-2.925-3.066 0-1.764 1.232-3.066 2.925-3.066.966 0 1.806.602 2.198 1.358l1.708-.84c-.657-1.162-1.848-2.282-3.906-2.282-2.8 0-4.97 1.96-4.97 4.83s2.17 4.83 4.97 4.83zM61.855 114v-1.75h-4.62v-2.114h4.522v-1.75h-4.522v-1.974h4.62v-1.75h-6.608V114h6.608zm6.322 0c1.778 0 2.716-1.12 2.716-2.52 0-1.176-.798-2.142-1.792-2.296.882-.182 1.61-.966 1.61-2.142 0-1.246-.91-2.38-2.688-2.38h-4.914V114h5.068zm-.588-5.6h-2.492v-2.03h2.492c.672 0 1.092.434 1.092 1.022 0 .588-.42 1.008-1.092 1.008zm.07 3.878h-2.562v-2.17h2.562c.784 0 1.204.504 1.204 1.092 0 .672-.448 1.078-1.204 1.078zm8.857 1.89c2.828 0 4.886-2.016 4.886-4.83s-2.058-4.83-4.886-4.83c-2.814 0-4.872 2.016-4.872 4.83s2.058 4.83 4.872 4.83zm0-1.764c-1.722 0-2.828-1.33-2.828-3.066 0-1.75 1.106-3.066 2.828-3.066 1.722 0 2.842 1.316 2.842 3.066 0 1.736-1.12 3.066-2.842 3.066zm10.405 1.764c2.828 0 4.886-2.016 4.886-4.83s-2.058-4.83-4.886-4.83c-2.814 0-4.872 2.016-4.872 4.83s2.058 4.83 4.872 4.83zm0-1.764c-1.722 0-2.828-1.33-2.828-3.066 0-1.75 1.106-3.066 2.828-3.066 1.722 0 2.842 1.316 2.842 3.066 0 1.736-1.12 3.066-2.842 3.066zM100.895 114l-3.962-4.956 3.71-4.382h-2.45l-3.304 4.172v-4.172h-1.988V114h1.988v-2.87l.728-.868L98.445 114h2.45z" fill="#fff"/><g opacity=".5" filter="url(#ffilter0_f)"><circle cx="65" cy="65" r="35" fill="#3B5998"/></g><circle cx="65" cy="50" r="40" fill="#3B5998"/><path d="M69.266 41.566c-.61 0-1.1.102-1.473.305-.339.203-.559.457-.66.762-.102.304-.152.694-.152 1.168V47h4.316l-.61 4.621h-3.706V63.25h-4.774V51.621h-3.91V47h3.91v-3.656c0-1.93.542-3.42 1.625-4.469 1.083-1.083 2.522-1.625 4.316-1.625 1.456 0 2.641.068 3.555.203v4.113h-2.437z" fill="#fff"/><defs><filter id="ffilter0_f" x="0" y="0" width="130" height="130" filterUnits="userSpaceOnUse" color-interpolation-filters="sRGB"><feFlood flood-opacity="0" result="BackgroundImageFix"/><feBlend in="SourceGraphic" in2="BackgroundImageFix" result="shape"/><feGaussianBlur stdDeviation="15" result="effect1_foregroundBlur"/></filter></defs></svg>