<?xml version="1.0" encoding="utf-8"?><svg width="40" height="37" fill="none" xmlns="http://www.w3.org/2000/svg" viewBox="0 0 40 37"><path fill-rule="evenodd" clip-rule="evenodd" d="M16.38 13.302c.3-.3.786-.3 1.087 0l4.826 4.826c.458-.27.984-.436 1.553-.436a3.08 3.08 0 013.077 3.077 3.08 3.08 0 01-3.077 3.077 3.08 3.08 0 01-3.077-3.077c0-.569.166-1.096.436-1.554L16.38 14.39c-.3-.3-.3-.787 0-1.087zm7.466 9.005a1.54 1.54 0 001.539-1.538 1.54 1.54 0 00-1.539-1.538c-.3 0-.578.09-.816.239a.739.739 0 01-.178.304.74.74 0 01-.305.178 1.53 1.53 0 001.3 2.355zm12.29-11.972C38.539 13.149 40 16.785 40 20.769c0 8.907-7.247 16.154-16.154 16.154-5.13 0-9.84-2.356-12.925-6.462a.77.77 0 011.231-.924c2.791 3.715 7.053 5.847 11.694 5.847 8.06 0 14.616-6.556 14.616-14.615 0-8.059-6.557-14.616-14.616-14.616a14.59 14.59 0 00-12.208 6.578.77.77 0 01-1.285-.848 16.121 16.121 0 0112.724-7.245v-3.1H20A.769.769 0 1120 0h7.692a.768.768 0 110 1.538h-3.077v3.116a16.102 16.102 0 019.669 3.82l2.095-2.096c.301-.3.787-.3 1.088 0l.77.77c.3.3.3.787 0 1.088l-2.1 2.099zM8.463 16.922H.769a.768.768 0 110-1.537h7.693a.768.768 0 110 1.537zM3.846 20h9.23a.77.77 0 010 1.539h-9.23a.768.768 0 110-1.539zm2.308 4.616h4.615a.768.768 0 110 1.539H6.154a.77.77 0 010-1.539z" fill="#F2C94C"/><path fill-rule="evenodd" clip-rule="evenodd" d="M16.38 13.302c.3-.3.786-.3 1.087 0l4.826 4.826c.458-.27.984-.436 1.553-.436a3.08 3.08 0 013.077 3.077 3.08 3.08 0 01-3.077 3.077 3.08 3.08 0 01-3.077-3.077c0-.569.166-1.096.436-1.554L16.38 14.39c-.3-.3-.3-.787 0-1.087zm7.466 9.005a1.54 1.54 0 001.539-1.538 1.54 1.54 0 00-1.539-1.538c-.3 0-.578.09-.816.239a.739.739 0 01-.178.304.74.74 0 01-.305.178 1.53 1.53 0 001.3 2.355zm12.29-11.972C38.539 13.149 40 16.785 40 20.769c0 8.907-7.247 16.154-16.154 16.154-5.13 0-9.84-2.356-12.925-6.462a.77.77 0 011.231-.924c2.791 3.715 7.053 5.847 11.694 5.847 8.06 0 14.616-6.556 14.616-14.615 0-8.059-6.557-14.616-14.616-14.616a14.59 14.59 0 00-12.208 6.578.77.77 0 01-1.285-.848 16.121 16.121 0 0112.724-7.245v-3.1H20A.769.769 0 1120 0h7.692a.768.768 0 110 1.538h-3.077v3.116a16.102 16.102 0 019.669 3.82l2.095-2.096c.301-.3.787-.3 1.088 0l.77.77c.3.3.3.787 0 1.088l-2.1 2.099zM8.463 16.922H.769a.768.768 0 110-1.537h7.693a.768.768 0 110 1.537zM3.846 20h9.23a.77.77 0 010 1.539h-9.23a.768.768 0 110-1.539zm2.308 4.616h4.615a.768.768 0 110 1.539H6.154a.77.77 0 010-1.539z" fill="url(#gpaint0_linear)"/><defs><linearGradient id="gpaint0_linear" x1="0" y1="0" x2="40.257" y2="36.979" gradientUnits="userSpaceOnUse"><stop stop-color="#fff" stop-opacity=".5"/><stop offset="1" stop-color="#fff" stop-opacity=".1"/></linearGradient></defs></svg>