<?xml version="1.0" encoding="utf-8"?><svg width="35" height="36" fill="none" xmlns="http://www.w3.org/2000/svg" viewBox="0 0 35 36"><path d="M0 12.063V2.374c0-.52.182-.964.547-1.328A1.808 1.808 0 011.875.5h9.688c.624 0 .937.313.937.938v3.125c0 .625-.313.937-.938.937H5v6.563c0 .624-.313.937-.938.937H.938C.313 13 0 12.687 0 12.062zM22.5 1.437c0-.625.313-.937.938-.937h9.687c.52 0 .964.182 1.328.547.365.364.547.807.547 1.328v9.688c0 .624-.313.937-.938.937h-3.124c-.625 0-.938-.313-.938-.938V5.5h-6.563c-.625 0-.937-.313-.937-.938V1.438zM34.063 23c.624 0 .937.313.937.938v9.687c0 .52-.182.964-.547 1.328a1.808 1.808 0 01-1.328.547h-9.688c-.625 0-.937-.313-.937-.938v-3.124c0-.625.313-.938.938-.938H30v-6.563c0-.625.313-.937.938-.937h3.125zM12.5 34.563c0 .624-.313.937-.938.937H1.876c-.52 0-.964-.182-1.328-.547A1.808 1.808 0 010 33.625v-9.688C0 23.313.313 23 .938 23h3.125c.625 0 .937.313.937.938V30.5h6.563c.624 0 .937.313.937.938v3.125z" fill="#333"/></svg>