<?xml version="1.0" encoding="utf-8"?><svg width="356" height="40" fill="none" xmlns="http://www.w3.org/2000/svg" viewBox="0 0 356 40"><path d="M58.45 10.8h-6.89V29h4.16v-5.72h2.73c3.588 0 6.37-2.782 6.37-6.24s-2.782-6.24-6.37-6.24zm0 8.58h-2.73V14.7h2.73c1.274 0 2.21 1.014 2.21 2.34 0 1.326-.936 2.34-2.21 2.34zm15.434-3.744c-1.716 0-3.016.624-3.718 1.586V10.8h-3.9V29h3.9v-7.098c0-1.846.988-2.678 2.418-2.678 1.248 0 2.262.754 2.262 2.366V29h3.9v-7.982c0-3.51-2.236-5.382-4.862-5.382zm13.28 13.728c3.822 0 6.89-2.99 6.89-6.864 0-3.874-3.068-6.864-6.89-6.864-3.822 0-6.89 2.99-6.89 6.864 0 3.874 3.068 6.864 6.89 6.864zm0-3.796c-1.69 0-2.99-1.222-2.99-3.068s1.3-3.068 2.99-3.068c1.69 0 2.99 1.222 2.99 3.068s-1.3 3.068-2.99 3.068zm15.96-5.824V16h-2.678v-3.64l-3.9 1.17V16h-2.08v3.744h2.08v4.602c0 3.64 1.482 5.174 6.578 4.654v-3.536c-1.716.104-2.678 0-2.678-1.118v-4.602h2.678zm7.694 9.62c3.822 0 6.89-2.99 6.89-6.864 0-3.874-3.068-6.864-6.89-6.864-3.822 0-6.89 2.99-6.89 6.864 0 3.874 3.068 6.864 6.89 6.864zm0-3.796c-1.69 0-2.99-1.222-2.99-3.068s1.3-3.068 2.99-3.068c1.69 0 2.99 1.222 2.99 3.068s-1.3 3.068-2.99 3.068zm26.744-6.708h-9.126v3.64h4.862c-.65 1.742-2.236 2.808-4.654 2.808-3.536 0-5.72-2.262-5.72-5.356 0-3.198 2.288-5.46 5.356-5.46 2.054 0 3.692.936 4.446 2.132l3.536-2.028c-1.534-2.444-4.472-4.16-7.956-4.16-5.356 0-9.542 4.212-9.542 9.49 0 5.226 4.108 9.438 9.828 9.438 5.096 0 8.97-3.38 8.97-8.944v-1.56zM147.803 16v7.098c0 1.846-.988 2.678-2.418 2.678-1.248 0-2.262-.754-2.262-2.366V16h-3.9v7.982c0 3.51 2.236 5.382 4.862 5.382 1.716 0 3.016-.624 3.718-1.586V29h3.9V16h-3.9zm8.21-1.144a2.364 2.364 0 002.34-2.34 2.364 2.364 0 00-2.34-2.34 2.364 2.364 0 00-2.34 2.34 2.364 2.364 0 002.34 2.34zM154.063 29h3.9V16h-3.9v13zm15.692-18.2v6.422c-.858-.988-2.132-1.586-3.874-1.586-3.406 0-6.214 2.99-6.214 6.864 0 3.874 2.808 6.864 6.214 6.864 1.742 0 3.016-.598 3.874-1.586V29h3.9V10.8h-3.9zm-3.094 14.872c-1.794 0-3.094-1.222-3.094-3.172 0-1.95 1.3-3.172 3.094-3.172 1.794 0 3.094 1.222 3.094 3.172 0 1.95-1.3 3.172-3.094 3.172zM179.5 24.06h9.23a7.558 7.558 0 00.156-1.56c0-3.926-2.808-6.864-6.604-6.864-4.108 0-6.916 2.99-6.916 6.864 0 3.874 2.756 6.864 7.202 6.864 2.47 0 4.394-.91 5.668-2.678l-3.12-1.794c-.52.572-1.43.988-2.496.988-1.43 0-2.626-.468-3.12-1.82zm-.078-2.912c.364-1.326 1.352-2.054 2.834-2.054 1.17 0 2.34.546 2.756 2.054h-5.59z" fill="#fff"/><g opacity=".7"><path d="M253.588 16.144c2.16 0 3.096-1.14 3.096-2.472 0-2.988-4.656-2.064-4.656-3.552 0-.6.528-.996 1.356-.996.84 0 1.692.288 2.316.912l.804-1.044c-.744-.72-1.752-1.116-3-1.116-1.752 0-2.916 1.02-2.916 2.34 0 2.952 4.668 1.908 4.668 3.588 0 .528-.456 1.092-1.608 1.092a3.453 3.453 0 01-2.532-1.104l-.78 1.08c.708.756 1.776 1.272 3.252 1.272zm5.917 0c.588 0 .96-.156 1.188-.372l-.3-.948c-.096.108-.324.204-.564.204-.36 0-.552-.288-.552-.684v-3.036h1.176v-1.104h-1.176V8.62h-1.26v1.584h-.96v1.104h.96v3.348c0 .96.516 1.488 1.488 1.488zm4.708 0c1.86 0 2.988-1.38 2.988-3.048 0-1.656-1.128-3.036-2.988-3.036-1.836 0-2.976 1.38-2.976 3.036 0 1.668 1.14 3.048 2.976 3.048zm0-1.116c-1.068 0-1.668-.9-1.668-1.932 0-1.02.6-1.92 1.668-1.92 1.08 0 1.68.9 1.68 1.92 0 1.032-.6 1.932-1.68 1.932zm7.383 1.116c1.5 0 2.568-1.14 2.568-3.048 0-1.908-1.068-3.036-2.568-3.036-.756 0-1.428.36-1.86.936v-.792h-1.26v8.004h1.26v-3.012c.468.624 1.128.948 1.86.948zm-.372-1.116c-.588 0-1.212-.36-1.488-.78v-2.292c.276-.432.9-.78 1.488-.78.996 0 1.632.804 1.632 1.92 0 1.128-.636 1.932-1.632 1.932zm9.012 1.116c.588 0 .96-.156 1.188-.372l-.3-.948c-.096.108-.324.204-.564.204-.36 0-.552-.288-.552-.684v-3.036h1.176v-1.104h-1.176V8.62h-1.26v1.584h-.96v1.104h.96v3.348c0 .96.516 1.488 1.488 1.488zm7.276-.144v-4.104c0-1.188-.624-1.836-1.872-1.836a2.77 2.77 0 00-2.052.936v-3h-1.26V16h1.26v-4.044c.3-.396.852-.78 1.488-.78.708 0 1.176.276 1.176 1.176V16h1.26zm4.312.144c.924 0 1.776-.288 2.352-.84l-.576-.828c-.408.408-1.08.636-1.644.636-1.092 0-1.752-.72-1.848-1.596h4.476v-.3c0-1.824-1.116-3.156-2.856-3.156-1.716 0-2.94 1.356-2.94 3.036 0 1.836 1.296 3.048 3.036 3.048zm1.536-3.516h-3.264c.06-.708.552-1.536 1.632-1.536 1.14 0 1.608.852 1.632 1.536zm7.29 3.516c.588 0 .96-.156 1.188-.372l-.3-.948c-.096.108-.324.204-.564.204-.36 0-.552-.288-.552-.684v-3.036h1.176v-1.104h-1.176V8.62h-1.26v1.584h-.96v1.104h.96v3.348c0 .96.516 1.488 1.488 1.488zm2.716-6.648c.432 0 .78-.348.78-.78a.778.778 0 00-.78-.78c-.42 0-.78.348-.78.78 0 .432.36.78.78.78zm.636 6.504v-5.796h-1.26V16h1.26zM314 16v-4.188c0-1.176-.6-1.752-1.668-1.752-.864 0-1.632.54-1.968 1.068-.192-.636-.72-1.068-1.584-1.068-.876 0-1.644.576-1.884.936v-.792h-1.26V16h1.26v-4.044c.264-.384.78-.78 1.332-.78.684 0 .96.42.96 1.044V16h1.26v-4.056c.252-.372.78-.768 1.344-.768.672 0 .948.42.948 1.044V16H314zm4.308.144c.924 0 1.776-.288 2.352-.84l-.576-.828c-.408.408-1.08.636-1.644.636-1.092 0-1.752-.72-1.848-1.596h4.476v-.3c0-1.824-1.116-3.156-2.856-3.156-1.716 0-2.94 1.356-2.94 3.036 0 1.836 1.296 3.048 3.036 3.048zm1.536-3.516h-3.264c.06-.708.552-1.536 1.632-1.536 1.14 0 1.608.852 1.632 1.536zm7.974 1.008v-1.08h-2.88v1.08h2.88zM252.076 32v-8.004h-1.26V32h1.26zm4.311.144c.924 0 1.776-.288 2.352-.84l-.576-.828c-.408.408-1.08.636-1.644.636-1.092 0-1.752-.72-1.848-1.596h4.476v-.3c0-1.824-1.116-3.156-2.856-3.156-1.716 0-2.94 1.356-2.94 3.036 0 1.836 1.296 3.048 3.036 3.048zm1.536-3.516h-3.264c.06-.708.552-1.536 1.632-1.536 1.14 0 1.608.852 1.632 1.536zM265.19 32v-3.84c0-1.56-1.128-2.1-2.412-2.1-.924 0-1.764.3-2.436.936l.516.876c.504-.492 1.068-.732 1.716-.732.804 0 1.356.408 1.356 1.08v.864c-.42-.492-1.092-.744-1.872-.744-.948 0-2.016.552-2.016 1.884 0 1.284 1.068 1.92 2.016 1.92.768 0 1.44-.276 1.872-.768V32h1.26zm-2.64-.72c-.708 0-1.236-.408-1.236-1.032 0-.636.528-1.044 1.236-1.044.552 0 1.092.204 1.38.6v.876c-.288.396-.828.6-1.38.6zm7.154.72l2.364-5.796h-1.356l-1.692 4.344-1.692-4.344h-1.344L268.348 32h1.356zm5.831.144c.924 0 1.776-.288 2.352-.84l-.576-.828c-.408.408-1.08.636-1.644.636-1.092 0-1.752-.72-1.848-1.596h4.476v-.3c0-1.824-1.116-3.156-2.856-3.156-1.716 0-2.94 1.356-2.94 3.036 0 1.836 1.296 3.048 3.036 3.048zm1.536-3.516h-3.264c.06-.708.552-1.536 1.632-1.536 1.14 0 1.608.852 1.632 1.536zm7.29 3.516c.588 0 .96-.156 1.188-.372l-.3-.948c-.096.108-.324.204-.564.204-.36 0-.552-.288-.552-.684v-3.036h1.176v-1.104h-1.176V24.62h-1.26v1.584h-.96v1.104h.96v3.348c0 .96.516 1.488 1.488 1.488zm7.276-.144v-4.104c0-1.188-.624-1.836-1.872-1.836a2.77 2.77 0 00-2.052.936v-3h-1.26V32h1.26v-4.044c.3-.396.852-.78 1.488-.78.708 0 1.176.276 1.176 1.176V32h1.26zm4.312.144c.924 0 1.776-.288 2.352-.84l-.576-.828c-.408.408-1.08.636-1.644.636-1.092 0-1.752-.72-1.848-1.596h4.476v-.3c0-1.824-1.116-3.156-2.856-3.156-1.716 0-2.94 1.356-2.94 3.036 0 1.836 1.296 3.048 3.036 3.048zm1.536-3.516h-3.264c.06-.708.552-1.536 1.632-1.536 1.14 0 1.608.852 1.632 1.536zM311.399 32v-4.188c0-1.176-.6-1.752-1.668-1.752-.864 0-1.632.54-1.968 1.068-.192-.636-.72-1.068-1.584-1.068-.876 0-1.644.576-1.884.936v-.792h-1.26V32h1.26v-4.044c.264-.384.78-.78 1.332-.78.684 0 .96.42.96 1.044V32h1.26v-4.056c.252-.372.78-.768 1.344-.768.672 0 .948.42.948 1.044V32h1.26zm4.308.144c.924 0 1.776-.288 2.352-.84l-.576-.828c-.408.408-1.08.636-1.644.636-1.092 0-1.752-.72-1.848-1.596h4.476v-.3c0-1.824-1.116-3.156-2.856-3.156-1.716 0-2.94 1.356-2.94 3.036 0 1.836 1.296 3.048 3.036 3.048zm1.536-3.516h-3.264c.06-.708.552-1.536 1.632-1.536 1.14 0 1.608.852 1.632 1.536zM328.075 32v-4.188c0-1.176-.6-1.752-1.668-1.752-.864 0-1.632.54-1.968 1.068-.192-.636-.72-1.068-1.584-1.068-.876 0-1.644.576-1.884.936v-.792h-1.26V32h1.26v-4.044c.264-.384.78-.78 1.332-.78.684 0 .96.42.96 1.044V32h1.26v-4.056c.252-.372.78-.768 1.344-.768.672 0 .948.42.948 1.044V32h1.26zm4.248.144c1.86 0 2.988-1.38 2.988-3.048 0-1.656-1.128-3.036-2.988-3.036-1.836 0-2.976 1.38-2.976 3.036 0 1.668 1.14 3.048 2.976 3.048zm0-1.116c-1.068 0-1.668-.9-1.668-1.932 0-1.02.6-1.92 1.668-1.92 1.08 0 1.68.9 1.68 1.92 0 1.032-.6 1.932-1.68 1.932zm5.523.972v-3.948c.252-.408.96-.768 1.488-.768.156 0 .288.012.396.036v-1.248c-.756 0-1.452.432-1.884.984v-.852h-1.26V32h1.26zm3.524-6.504c.432 0 .78-.348.78-.78a.778.778 0 00-.78-.78c-.42 0-.78.348-.78.78 0 .432.36.78.78.78zm.636 6.504v-5.796h-1.26V32h1.26zm4.31.144c.924 0 1.776-.288 2.352-.84l-.576-.828c-.408.408-1.08.636-1.644.636-1.092 0-1.752-.72-1.848-1.596h4.476v-.3c0-1.824-1.116-3.156-2.856-3.156-1.716 0-2.94 1.356-2.94 3.036 0 1.836 1.296 3.048 3.036 3.048zm1.536-3.516h-3.264c.06-.708.552-1.536 1.632-1.536 1.14 0 1.608.852 1.632 1.536zm4.448 3.516c1.56 0 2.412-.78 2.412-1.8 0-2.304-3.504-1.536-3.504-2.568 0-.408.42-.708 1.08-.708.72 0 1.368.3 1.716.696l.528-.888c-.528-.468-1.272-.816-2.256-.816-1.464 0-2.28.816-2.28 1.764 0 2.22 3.504 1.404 3.504 2.544 0 .456-.384.78-1.14.78-.756 0-1.56-.396-1.968-.816l-.576.912c.6.588 1.5.9 2.484.9z" fill="url(#mpaint0_linear)"/><path d="M253.588 16.144c2.16 0 3.096-1.14 3.096-2.472 0-2.988-4.656-2.064-4.656-3.552 0-.6.528-.996 1.356-.996.84 0 1.692.288 2.316.912l.804-1.044c-.744-.72-1.752-1.116-3-1.116-1.752 0-2.916 1.02-2.916 2.34 0 2.952 4.668 1.908 4.668 3.588 0 .528-.456 1.092-1.608 1.092a3.453 3.453 0 01-2.532-1.104l-.78 1.08c.708.756 1.776 1.272 3.252 1.272zm5.917 0c.588 0 .96-.156 1.188-.372l-.3-.948c-.096.108-.324.204-.564.204-.36 0-.552-.288-.552-.684v-3.036h1.176v-1.104h-1.176V8.62h-1.26v1.584h-.96v1.104h.96v3.348c0 .96.516 1.488 1.488 1.488zm4.708 0c1.86 0 2.988-1.38 2.988-3.048 0-1.656-1.128-3.036-2.988-3.036-1.836 0-2.976 1.38-2.976 3.036 0 1.668 1.14 3.048 2.976 3.048zm0-1.116c-1.068 0-1.668-.9-1.668-1.932 0-1.02.6-1.92 1.668-1.92 1.08 0 1.68.9 1.68 1.92 0 1.032-.6 1.932-1.68 1.932zm7.383 1.116c1.5 0 2.568-1.14 2.568-3.048 0-1.908-1.068-3.036-2.568-3.036-.756 0-1.428.36-1.86.936v-.792h-1.26v8.004h1.26v-3.012c.468.624 1.128.948 1.86.948zm-.372-1.116c-.588 0-1.212-.36-1.488-.78v-2.292c.276-.432.9-.78 1.488-.78.996 0 1.632.804 1.632 1.92 0 1.128-.636 1.932-1.632 1.932zm9.012 1.116c.588 0 .96-.156 1.188-.372l-.3-.948c-.096.108-.324.204-.564.204-.36 0-.552-.288-.552-.684v-3.036h1.176v-1.104h-1.176V8.62h-1.26v1.584h-.96v1.104h.96v3.348c0 .96.516 1.488 1.488 1.488zm7.276-.144v-4.104c0-1.188-.624-1.836-1.872-1.836a2.77 2.77 0 00-2.052.936v-3h-1.26V16h1.26v-4.044c.3-.396.852-.78 1.488-.78.708 0 1.176.276 1.176 1.176V16h1.26zm4.312.144c.924 0 1.776-.288 2.352-.84l-.576-.828c-.408.408-1.08.636-1.644.636-1.092 0-1.752-.72-1.848-1.596h4.476v-.3c0-1.824-1.116-3.156-2.856-3.156-1.716 0-2.94 1.356-2.94 3.036 0 1.836 1.296 3.048 3.036 3.048zm1.536-3.516h-3.264c.06-.708.552-1.536 1.632-1.536 1.14 0 1.608.852 1.632 1.536zm7.29 3.516c.588 0 .96-.156 1.188-.372l-.3-.948c-.096.108-.324.204-.564.204-.36 0-.552-.288-.552-.684v-3.036h1.176v-1.104h-1.176V8.62h-1.26v1.584h-.96v1.104h.96v3.348c0 .96.516 1.488 1.488 1.488zm2.716-6.648c.432 0 .78-.348.78-.78a.778.778 0 00-.78-.78c-.42 0-.78.348-.78.78 0 .432.36.78.78.78zm.636 6.504v-5.796h-1.26V16h1.26zM314 16v-4.188c0-1.176-.6-1.752-1.668-1.752-.864 0-1.632.54-1.968 1.068-.192-.636-.72-1.068-1.584-1.068-.876 0-1.644.576-1.884.936v-.792h-1.26V16h1.26v-4.044c.264-.384.78-.78 1.332-.78.684 0 .96.42.96 1.044V16h1.26v-4.056c.252-.372.78-.768 1.344-.768.672 0 .948.42.948 1.044V16H314zm4.308.144c.924 0 1.776-.288 2.352-.84l-.576-.828c-.408.408-1.08.636-1.644.636-1.092 0-1.752-.72-1.848-1.596h4.476v-.3c0-1.824-1.116-3.156-2.856-3.156-1.716 0-2.94 1.356-2.94 3.036 0 1.836 1.296 3.048 3.036 3.048zm1.536-3.516h-3.264c.06-.708.552-1.536 1.632-1.536 1.14 0 1.608.852 1.632 1.536zm7.974 1.008v-1.08h-2.88v1.08h2.88zM252.076 32v-8.004h-1.26V32h1.26zm4.311.144c.924 0 1.776-.288 2.352-.84l-.576-.828c-.408.408-1.08.636-1.644.636-1.092 0-1.752-.72-1.848-1.596h4.476v-.3c0-1.824-1.116-3.156-2.856-3.156-1.716 0-2.94 1.356-2.94 3.036 0 1.836 1.296 3.048 3.036 3.048zm1.536-3.516h-3.264c.06-.708.552-1.536 1.632-1.536 1.14 0 1.608.852 1.632 1.536zM265.19 32v-3.84c0-1.56-1.128-2.1-2.412-2.1-.924 0-1.764.3-2.436.936l.516.876c.504-.492 1.068-.732 1.716-.732.804 0 1.356.408 1.356 1.08v.864c-.42-.492-1.092-.744-1.872-.744-.948 0-2.016.552-2.016 1.884 0 1.284 1.068 1.92 2.016 1.92.768 0 1.44-.276 1.872-.768V32h1.26zm-2.64-.72c-.708 0-1.236-.408-1.236-1.032 0-.636.528-1.044 1.236-1.044.552 0 1.092.204 1.38.6v.876c-.288.396-.828.6-1.38.6zm7.154.72l2.364-5.796h-1.356l-1.692 4.344-1.692-4.344h-1.344L268.348 32h1.356zm5.831.144c.924 0 1.776-.288 2.352-.84l-.576-.828c-.408.408-1.08.636-1.644.636-1.092 0-1.752-.72-1.848-1.596h4.476v-.3c0-1.824-1.116-3.156-2.856-3.156-1.716 0-2.94 1.356-2.94 3.036 0 1.836 1.296 3.048 3.036 3.048zm1.536-3.516h-3.264c.06-.708.552-1.536 1.632-1.536 1.14 0 1.608.852 1.632 1.536zm7.29 3.516c.588 0 .96-.156 1.188-.372l-.3-.948c-.096.108-.324.204-.564.204-.36 0-.552-.288-.552-.684v-3.036h1.176v-1.104h-1.176V24.62h-1.26v1.584h-.96v1.104h.96v3.348c0 .96.516 1.488 1.488 1.488zm7.276-.144v-4.104c0-1.188-.624-1.836-1.872-1.836a2.77 2.77 0 00-2.052.936v-3h-1.26V32h1.26v-4.044c.3-.396.852-.78 1.488-.78.708 0 1.176.276 1.176 1.176V32h1.26zm4.312.144c.924 0 1.776-.288 2.352-.84l-.576-.828c-.408.408-1.08.636-1.644.636-1.092 0-1.752-.72-1.848-1.596h4.476v-.3c0-1.824-1.116-3.156-2.856-3.156-1.716 0-2.94 1.356-2.94 3.036 0 1.836 1.296 3.048 3.036 3.048zm1.536-3.516h-3.264c.06-.708.552-1.536 1.632-1.536 1.14 0 1.608.852 1.632 1.536zM311.399 32v-4.188c0-1.176-.6-1.752-1.668-1.752-.864 0-1.632.54-1.968 1.068-.192-.636-.72-1.068-1.584-1.068-.876 0-1.644.576-1.884.936v-.792h-1.26V32h1.26v-4.044c.264-.384.78-.78 1.332-.78.684 0 .96.42.96 1.044V32h1.26v-4.056c.252-.372.78-.768 1.344-.768.672 0 .948.42.948 1.044V32h1.26zm4.308.144c.924 0 1.776-.288 2.352-.84l-.576-.828c-.408.408-1.08.636-1.644.636-1.092 0-1.752-.72-1.848-1.596h4.476v-.3c0-1.824-1.116-3.156-2.856-3.156-1.716 0-2.94 1.356-2.94 3.036 0 1.836 1.296 3.048 3.036 3.048zm1.536-3.516h-3.264c.06-.708.552-1.536 1.632-1.536 1.14 0 1.608.852 1.632 1.536zM328.075 32v-4.188c0-1.176-.6-1.752-1.668-1.752-.864 0-1.632.54-1.968 1.068-.192-.636-.72-1.068-1.584-1.068-.876 0-1.644.576-1.884.936v-.792h-1.26V32h1.26v-4.044c.264-.384.78-.78 1.332-.78.684 0 .96.42.96 1.044V32h1.26v-4.056c.252-.372.78-.768 1.344-.768.672 0 .948.42.948 1.044V32h1.26zm4.248.144c1.86 0 2.988-1.38 2.988-3.048 0-1.656-1.128-3.036-2.988-3.036-1.836 0-2.976 1.38-2.976 3.036 0 1.668 1.14 3.048 2.976 3.048zm0-1.116c-1.068 0-1.668-.9-1.668-1.932 0-1.02.6-1.92 1.668-1.92 1.08 0 1.68.9 1.68 1.92 0 1.032-.6 1.932-1.68 1.932zm5.523.972v-3.948c.252-.408.96-.768 1.488-.768.156 0 .288.012.396.036v-1.248c-.756 0-1.452.432-1.884.984v-.852h-1.26V32h1.26zm3.524-6.504c.432 0 .78-.348.78-.78a.778.778 0 00-.78-.78c-.42 0-.78.348-.78.78 0 .432.36.78.78.78zm.636 6.504v-5.796h-1.26V32h1.26zm4.31.144c.924 0 1.776-.288 2.352-.84l-.576-.828c-.408.408-1.08.636-1.644.636-1.092 0-1.752-.72-1.848-1.596h4.476v-.3c0-1.824-1.116-3.156-2.856-3.156-1.716 0-2.94 1.356-2.94 3.036 0 1.836 1.296 3.048 3.036 3.048zm1.536-3.516h-3.264c.06-.708.552-1.536 1.632-1.536 1.14 0 1.608.852 1.632 1.536zm4.448 3.516c1.56 0 2.412-.78 2.412-1.8 0-2.304-3.504-1.536-3.504-2.568 0-.408.42-.708 1.08-.708.72 0 1.368.3 1.716.696l.528-.888c-.528-.468-1.272-.816-2.256-.816-1.464 0-2.28.816-2.28 1.764 0 2.22 3.504 1.404 3.504 2.544 0 .456-.384.78-1.14.78-.756 0-1.56-.396-1.968-.816l-.576.912c.6.588 1.5.9 2.484.9z" fill="#fff"/></g><path fill-rule="evenodd" clip-rule="evenodd" d="M1 7H0v9.47h2V9h7.47V7H1zm38.793 1V7h-9.47v2h7.47v7.47h2V8zM0 33.11h9.47v-2H2v-7.471H0v9.47zm39.793-1v1h-9.47v-2h7.47v-7.471h2v8.47z" fill="#F2C94C"/><path fill-rule="evenodd" clip-rule="evenodd" d="M1 7H0v9.47h2V9h7.47V7H1zm38.793 1V7h-9.47v2h7.47v7.47h2V8zM0 33.11h9.47v-2H2v-7.471H0v9.47zm39.793-1v1h-9.47v-2h7.47v-7.471h2v8.47z" fill="url(#mpaint1_linear)"/><path d="M19.708 11.91a8.21 8.21 0 014.73 1.49l-1.272 1.28a6.46 6.46 0 00-3.458-.997 6.463 6.463 0 00-3.766 1.204l-1.26-1.268a8.213 8.213 0 015.026-1.71z" fill="#F2C94C"/><path d="M19.708 11.91a8.21 8.21 0 014.73 1.49l-1.272 1.28a6.46 6.46 0 00-3.458-.997 6.463 6.463 0 00-3.766 1.204l-1.26-1.268a8.213 8.213 0 015.026-1.71z" fill="url(#mpaint2_linear)"/><path d="M13.124 15.186a8.33 8.33 0 00-1.698 5.058c0 1.768.547 3.409 1.482 4.758l1.271-1.28a6.56 6.56 0 01-.991-3.479c0-1.411.443-2.718 1.197-3.789l-1.26-1.268z" fill="#F2C94C"/><path d="M13.124 15.186a8.33 8.33 0 00-1.698 5.058c0 1.768.547 3.409 1.482 4.758l1.271-1.28a6.56 6.56 0 01-.991-3.479c0-1.411.443-2.718 1.197-3.789l-1.26-1.268z" fill="url(#mpaint3_linear)"/><path d="M23.474 25.6a6.463 6.463 0 01-3.766 1.204 6.467 6.467 0 01-4.059-1.426l-1.252 1.26a8.218 8.218 0 005.311 1.94c1.89 0 3.632-.638 5.026-1.71l-1.26-1.268z" fill="#F2C94C"/><path d="M23.474 25.6a6.463 6.463 0 01-3.766 1.204 6.467 6.467 0 01-4.059-1.426l-1.252 1.26a8.218 8.218 0 005.311 1.94c1.89 0 3.632-.638 5.026-1.71l-1.26-1.268z" fill="url(#mpaint4_linear)"/><path d="M26.292 25.3a8.33 8.33 0 001.699-5.056 8.332 8.332 0 00-1.927-5.345l-1.253 1.26a6.558 6.558 0 011.417 4.085 6.558 6.558 0 01-1.197 3.789l1.26 1.268z" fill="#F2C94C"/><path d="M26.292 25.3a8.33 8.33 0 001.699-5.056 8.332 8.332 0 00-1.927-5.345l-1.253 1.26a6.558 6.558 0 011.417 4.085 6.558 6.558 0 01-1.197 3.789l1.26 1.268z" fill="url(#mpaint5_linear)"/><path d="M21.91 20.244a2.21 2.21 0 01-2.202 2.216 2.21 2.21 0 01-2.203-2.216 2.21 2.21 0 012.203-2.217 2.21 2.21 0 012.203 2.216z" fill="#F2C94C"/><path d="M21.91 20.244a2.21 2.21 0 01-2.202 2.216 2.21 2.21 0 01-2.203-2.216 2.21 2.21 0 012.203-2.217 2.21 2.21 0 012.203 2.216z" fill="url(#mpaint6_linear)"/><path opacity=".2" stroke="#fff" d="M220.5 0v40"/><defs><linearGradient id="mpaint0_linear" x1="251.792" y1="11.628" x2="358.103" y2="15.58" gradientUnits="userSpaceOnUse"><stop stop-color="#EF8918"/><stop offset="1" stop-color="#EF6B17"/></linearGradient><linearGradient id="mpaint1_linear" x1="0" y1="7" x2="27.655" y2="42.739" gradientUnits="userSpaceOnUse"><stop stop-color="#fff" stop-opacity=".5"/><stop offset="1" stop-color="#fff" stop-opacity=".1"/></linearGradient><linearGradient id="mpaint2_linear" x1="11.426" y1="11.91" x2="29.4" y2="27.056" gradientUnits="userSpaceOnUse"><stop stop-color="#fff" stop-opacity=".5"/><stop offset="1" stop-color="#fff" stop-opacity=".1"/></linearGradient><linearGradient id="mpaint3_linear" x1="11.426" y1="11.91" x2="29.4" y2="27.056" gradientUnits="userSpaceOnUse"><stop stop-color="#fff" stop-opacity=".5"/><stop offset="1" stop-color="#fff" stop-opacity=".1"/></linearGradient><linearGradient id="mpaint4_linear" x1="11.426" y1="11.91" x2="29.4" y2="27.056" gradientUnits="userSpaceOnUse"><stop stop-color="#fff" stop-opacity=".5"/><stop offset="1" stop-color="#fff" stop-opacity=".1"/></linearGradient><linearGradient id="mpaint5_linear" x1="11.426" y1="11.91" x2="29.4" y2="27.056" gradientUnits="userSpaceOnUse"><stop stop-color="#fff" stop-opacity=".5"/><stop offset="1" stop-color="#fff" stop-opacity=".1"/></linearGradient><linearGradient id="mpaint6_linear" x1="11.426" y1="11.91" x2="29.4" y2="27.056" gradientUnits="userSpaceOnUse"><stop stop-color="#fff" stop-opacity=".5"/><stop offset="1" stop-color="#fff" stop-opacity=".1"/></linearGradient></defs></svg>