<?xml version="1.0" encoding="utf-8"?><svg width="40" height="37" fill="none" xmlns="http://www.w3.org/2000/svg" viewBox="0 0 40 37"><path fill-rule="evenodd" clip-rule="evenodd" d="M37.418 36.667H2.571c-1.373 0-2.571-1.122-2.571-2.5v-25c0-1.38 1.198-2.501 2.57-2.501h34.848c1.373 0 2.582 1.122 2.582 2.5v25c0 1.379-1.21 2.5-2.582 2.5zm.915-27.5c0-.46-.457-.834-.915-.834H2.571c-.458 0-.904.374-.904.834v17.541l10.316-9.005a.829.829 0 011.131.041l9.448 9.489 6.061-4.567a.829.829 0 011.093.085l8.617 8.872V9.167zm0 24.842l-9.296-9.57L22.982 29a.825.825 0 01-1.084-.078l-9.41-9.45-10.821 9.445v5.25c0 .459.446.832.904.832h34.847c.458 0 .915-.373.915-.832v-.158zm-11.7-18.174a2.5 2.5 0 012.492-2.502 2.497 2.497 0 012.486 2.502 2.495 2.495 0 01-2.486 2.497 2.498 2.498 0 01-2.492-2.497zm3.319 0c0-.46-.371-.835-.827-.835a.834.834 0 000 1.667.83.83 0 00.827-.832zM36.589 5H2.571a.832.832 0 01-.83-.833c0-.461.372-.834.83-.834h34.018a.83.83 0 01.83.834c0 .46-.371.833-.83.833zm-1.66-3.334H4.231A.831.831 0 013.4.833c0-.46.372-.833.83-.833h30.698c.459 0 .83.373.83.833 0 .46-.371.833-.83.833z" fill="#F2C94C"/><path fill-rule="evenodd" clip-rule="evenodd" d="M37.418 36.667H2.571c-1.373 0-2.571-1.122-2.571-2.5v-25c0-1.38 1.198-2.501 2.57-2.501h34.848c1.373 0 2.582 1.122 2.582 2.5v25c0 1.379-1.21 2.5-2.582 2.5zm.915-27.5c0-.46-.457-.834-.915-.834H2.571c-.458 0-.904.374-.904.834v17.541l10.316-9.005a.829.829 0 011.131.041l9.448 9.489 6.061-4.567a.829.829 0 011.093.085l8.617 8.872V9.167zm0 24.842l-9.296-9.57L22.982 29a.825.825 0 01-1.084-.078l-9.41-9.45-10.821 9.445v5.25c0 .459.446.832.904.832h34.847c.458 0 .915-.373.915-.832v-.158zm-11.7-18.174a2.5 2.5 0 012.492-2.502 2.497 2.497 0 012.486 2.502 2.495 2.495 0 01-2.486 2.497 2.498 2.498 0 01-2.492-2.497zm3.319 0c0-.46-.371-.835-.827-.835a.834.834 0 000 1.667.83.83 0 00.827-.832zM36.589 5H2.571a.832.832 0 01-.83-.833c0-.461.372-.834.83-.834h34.018a.83.83 0 01.83.834c0 .46-.371.833-.83.833zm-1.66-3.334H4.231A.831.831 0 013.4.833c0-.46.372-.833.83-.833h30.698c.459 0 .83.373.83.833 0 .46-.371.833-.83.833z" fill="url(#npaint0_linear)"/><defs><linearGradient id="npaint0_linear" x1="0" y1="0" x2="40" y2="37" gradientUnits="userSpaceOnUse"><stop stop-color="#fff" stop-opacity=".5"/><stop offset="1" stop-color="#fff" stop-opacity=".1"/></linearGradient></defs></svg>