<?xml version="1.0" encoding="utf-8"?><svg width="130" height="130" fill="none" xmlns="http://www.w3.org/2000/svg" viewBox="0 0 130 130"><path d="M34.922 114v-7.588h2.716v-1.75H30.19v1.75h2.73V114h2.002zm10.299 0v-1.75H40.6v-2.114h4.522v-1.75H40.6v-1.974h4.62v-1.75h-6.608V114h6.608zm7.19 0v-1.75h-3.948v-7.588h-1.988V114h5.936zm7.7 0v-1.75h-4.62v-2.114h4.522v-1.75H55.49v-1.974h4.62v-1.75h-6.608V114h6.608zm5.776.182c1.694 0 3.024-.7 3.976-1.764v-3.584H65.41v1.736h2.464v1.12c-.378.35-1.162.714-1.988.714-1.694 0-2.926-1.302-2.926-3.066 0-1.764 1.232-3.066 2.926-3.066.994 0 1.792.56 2.212 1.218l1.652-.896c-.7-1.106-1.918-2.086-3.864-2.086-2.73 0-4.97 1.876-4.97 4.83 0 2.94 2.24 4.844 4.97 4.844zM78.7 114l-2.1-3.556c1.008-.238 2.044-1.12 2.044-2.772 0-1.736-1.19-3.01-3.136-3.01h-4.368V114h1.988v-3.318h1.456L76.419 114h2.282zm-3.486-5.068h-2.086v-2.52h2.086c.798 0 1.4.476 1.4 1.26s-.602 1.26-1.4 1.26zM88.545 114l-3.598-9.338h-2.492L78.843 114h2.268l.588-1.582h4.004l.574 1.582h2.268zm-3.388-3.332h-2.912l1.456-4.018 1.456 4.018zM99.23 114v-9.338h-2.8l-2.268 5.642-2.268-5.642h-2.786V114h1.988v-6.538L93.727 114h.868l2.632-6.538V114h2.002z" fill="#fff"/><g opacity=".5" filter="url(#pfilter0_f)"><circle cx="65" cy="65" r="35" fill="#08C"/></g><circle cx="65" cy="50" r="40" fill="#08C"/><path d="M76.75 41.914l-3.719 17.39c-.291 1.24-.966 1.568-2.023.985l-5.633-4.156-2.734 2.625c-.365.364-.748.547-1.149.547l.438-5.742 10.445-9.407c.255-.255.255-.4 0-.437-.219-.073-.456-.019-.71.164L58.757 52.03l-5.578-1.75c-.62-.182-.912-.456-.875-.82.036-.365.419-.675 1.148-.93l21.711-8.422c.547-.182.984-.109 1.313.22.328.29.419.82.273 1.585z" fill="#fff"/><defs><filter id="pfilter0_f" x="0" y="0" width="130" height="130" filterUnits="userSpaceOnUse" color-interpolation-filters="sRGB"><feFlood flood-opacity="0" result="BackgroundImageFix"/><feBlend in="SourceGraphic" in2="BackgroundImageFix" result="shape"/><feGaussianBlur stdDeviation="15" result="effect1_foregroundBlur"/></filter></defs></svg>