<?xml version="1.0" encoding="utf-8"?><svg width="130" height="130" fill="none" xmlns="http://www.w3.org/2000/svg" viewBox="0 0 130 130"><path d="M31.861 114l3.598-9.338h-2.268l-2.576 7.182-2.59-7.182h-2.268L29.369 114h2.492zm12.154 0l-3.962-4.956 3.71-4.382h-2.45l-3.304 4.172v-4.172h-1.988V114h1.988v-2.87l.728-.868L41.565 114h2.45zm4.374.168c2.828 0 4.886-2.016 4.886-4.83s-2.058-4.83-4.886-4.83c-2.814 0-4.872 2.016-4.872 4.83s2.058 4.83 4.872 4.83zm0-1.764c-1.722 0-2.828-1.33-2.828-3.066 0-1.75 1.106-3.066 2.828-3.066 1.722 0 2.842 1.316 2.842 3.066 0 1.736-1.12 3.066-2.842 3.066zM62.73 114v-9.338H60.74v5.866l-4.326-5.866H54.37V114h1.989v-6.09L60.81 114h1.918zm5.699 0v-7.588h2.716v-1.75h-7.448v1.75h2.73V114h2.002zm11.496 0l-3.598-9.338h-2.492L70.222 114h2.268l.588-1.582h4.004l.574 1.582h2.268zm-3.388-3.332h-2.912l1.456-4.018 1.456 4.018zM88.48 114l-3.962-4.956 3.71-4.382h-2.45l-3.304 4.172v-4.172h-1.988V114h1.988v-2.87l.728-.868L86.03 114h2.45zm4.764 0v-7.588h2.716v-1.75h-7.447v1.75h2.73V114h2.002zm10.299 0v-1.75h-4.62v-2.114h4.522v-1.75h-4.522v-1.974h4.62v-1.75h-6.608V114h6.608z" fill="#fff"/><g opacity=".5" filter="url(#tfilter0_f)"><circle cx="65" cy="65" r="35" fill="#4C75A3"/></g><circle cx="65" cy="50" r="40" fill="#4C75A3"/><path d="M80.088 41.664c-.117.586-.586 1.543-1.406 2.871a88.18 88.18 0 01-2.168 3.516c-.664.976-1.016 1.484-1.055 1.523-.234.352-.352.606-.352.762 0 .156.118.43.352.82l.352.41.937.938c.352.352.742.762 1.172 1.23.43.47.82.938 1.172 1.407.39.43.722.879.996 1.347.312.469.527.86.644 1.172.274.977-.117 1.465-1.171 1.465h-3.458c-.273 0-.507-.04-.703-.117a2.488 2.488 0 01-.644-.41 5.026 5.026 0 01-.645-.645 33.443 33.443 0 00-.879-.996c-.39-.43-.78-.84-1.171-1.23-1.563-1.485-2.715-2.227-3.458-2.227-.468 0-.742.137-.82.41-.078.274-.117 1.055-.117 2.344.04.625.059 1.133.059 1.523 0 .47-.157.82-.47 1.055-.312.195-.995.293-2.05.293-1.836 0-3.691-.547-5.566-1.64-1.875-1.094-3.516-2.657-4.922-4.688-1.328-1.797-2.442-3.574-3.34-5.332-.86-1.797-1.426-3.164-1.7-4.102-.273-.937-.41-1.601-.41-1.992 0-.664.391-.996 1.172-.996h3.458c.43 0 .742.098.937.293.234.195.43.547.586 1.055.82 2.383 1.816 4.511 2.988 6.386 1.211 1.875 2.13 2.813 2.754 2.813.235 0 .39-.078.469-.234.117-.196.176-.547.176-1.055v-5.098c-.04-.547-.137-1.015-.293-1.406-.157-.39-.313-.664-.47-.82-.155-.196-.312-.391-.468-.586-.117-.196-.176-.371-.176-.528 0-.156.04-.293.118-.41.078-.117.175-.215.292-.293a1.04 1.04 0 01.47-.117h5.448c.626 0 .938.43.938 1.29v6.796c0 .664.176.996.527.996.391 0 .938-.352 1.641-1.055.742-.82 1.465-1.816 2.168-2.988.703-1.172 1.23-2.148 1.582-2.93l.527-1.113c.274-.664.762-.996 1.465-.996h3.457c.938 0 1.29.43 1.055 1.29z" fill="#fff"/><defs><filter id="tfilter0_f" x="0" y="0" width="130" height="130" filterUnits="userSpaceOnUse" color-interpolation-filters="sRGB"><feFlood flood-opacity="0" result="BackgroundImageFix"/><feBlend in="SourceGraphic" in2="BackgroundImageFix" result="shape"/><feGaussianBlur stdDeviation="15" result="effect1_foregroundBlur"/></filter></defs></svg>