<?xml version="1.0" encoding="utf-8"?><svg width="130" height="130" fill="none" xmlns="http://www.w3.org/2000/svg" viewBox="0 0 130 130"><path d="M38.671 114l2.66-9.338h-2.24l-1.624 6.748-1.764-6.748H34.15l-1.778 6.748-1.638-6.748h-2.226L31.181 114h2.114l1.624-6.412L36.557 114h2.114zm11.698 0v-9.338h-2.002v3.668h-4.41v-3.668h-1.988V114h1.988v-3.92h4.41V114h2.002zm10.248 0l-3.598-9.338h-2.492L50.915 114h2.268l.588-1.582h4.004L58.35 114h2.268zm-3.388-3.332h-2.912l1.456-4.018 1.456 4.018zM64.435 114v-7.588h2.716v-1.75h-7.448v1.75h2.73V114h2.002zm6.913.168c2.52 0 3.738-1.288 3.738-2.996 0-3.486-5.362-2.492-5.362-3.976 0-.56.476-.938 1.33-.938.952 0 1.96.322 2.716 1.022l1.106-1.456c-.924-.854-2.156-1.302-3.64-1.302-2.198 0-3.542 1.288-3.542 2.842 0 3.514 5.376 2.38 5.376 4.032 0 .532-.532 1.036-1.624 1.036a4.094 4.094 0 01-2.968-1.26l-1.078 1.512c.868.882 2.156 1.484 3.948 1.484zM84.696 114l-3.598-9.338h-2.492L74.994 114h2.268l.588-1.582h4.004l.574 1.582h2.268zm-3.388-3.332h-2.912l1.456-4.018 1.456 4.018zM87.246 114v-3.318h2.38c2.016 0 3.136-1.386 3.136-3.01 0-1.638-1.106-3.01-3.136-3.01h-4.368V114h1.988zm2.114-5.068h-2.114v-2.52h2.114c.784 0 1.372.476 1.372 1.26 0 .77-.588 1.26-1.372 1.26zM95.682 114v-3.318h2.38c2.016 0 3.136-1.386 3.136-3.01 0-1.638-1.106-3.01-3.136-3.01h-4.368V114h1.988zm2.114-5.068h-2.114v-2.52h2.114c.784 0 1.372.476 1.372 1.26 0 .77-.588 1.26-1.372 1.26z" fill="#fff"/><g opacity=".5" filter="url(#ufilter0_f)"><circle cx="65" cy="65" r="35" fill="#42D691"/></g><circle cx="65" cy="50" r="40" fill="#42D691"/><path d="M74.7 40.434c2.616 2.617 3.925 5.683 3.925 9.199 0 3.594-1.29 6.66-3.867 9.199-2.578 2.54-5.664 3.809-9.258 3.809-2.227 0-4.297-.528-6.21-1.582l-6.915 1.816 1.875-6.738c-1.172-1.992-1.758-4.16-1.758-6.504 0-3.594 1.27-6.66 3.809-9.2 2.539-2.538 5.605-3.808 9.199-3.808 3.594 0 6.66 1.27 9.2 3.809zm-9.2 20.039c2.969 0 5.527-1.055 7.676-3.164 2.148-2.149 3.222-4.707 3.222-7.676.04-2.89-1.054-5.43-3.28-7.617-2.11-2.11-4.65-3.164-7.618-3.164-2.969 0-5.527 1.054-7.676 3.164-2.11 2.109-3.164 4.648-3.164 7.617 0 2.07.567 3.984 1.7 5.742l.234.41-1.114 3.985 4.102-1.055.41.234c1.68 1.016 3.516 1.524 5.508 1.524zm5.918-8.145c.39.195.605.332.644.41.118.235.04.762-.234 1.582-.117.313-.43.645-.937.996-.47.313-.88.489-1.23.528-1.017.156-2.325-.117-3.927-.82-1.914-.82-3.75-2.462-5.507-4.922-.899-1.211-1.348-2.325-1.348-3.34 0-.977.371-1.895 1.113-2.754.274-.235.567-.352.88-.352h.644c.351 0 .586.176.703.528l.996 2.402c.117.234.137.43.058.586a3.803 3.803 0 01-.586.937l-.41.41c-.039.04-.02.176.059.41.547 1.016 1.133 1.778 1.758 2.286.664.508 1.543 1.035 2.637 1.582.312.156.546.137.703-.059.507-.586.859-1.015 1.054-1.289.156-.234.39-.293.703-.176.313.118 1.055.47 2.227 1.055z" fill="#fff"/><defs><filter id="ufilter0_f" x="0" y="0" width="130" height="130" filterUnits="userSpaceOnUse" color-interpolation-filters="sRGB"><feFlood flood-opacity="0" result="BackgroundImageFix"/><feBlend in="SourceGraphic" in2="BackgroundImageFix" result="shape"/><feGaussianBlur stdDeviation="15" result="effect1_foregroundBlur"/></filter></defs></svg>